<?xml version="1.0" encoding="UTF-8" standalone="no"?>
<!-- Generator: Adobe Illustrator 23.0.1, SVG Export Plug-In . SVG Version: 6.00 Build 0)  -->

<svg
   version="1.1"
   id="Layer_1"
   x="0px"
   y="0px"
   viewBox="0 0 216.79892 82.758188"
   xml:space="preserve"
   sodipodi:docname="edsblackLoop.svg"
   inkscape:version="1.1.1 (eb90963e84, 2021-10-02)"
   width="216.79892"
   height="82.758186"
   xmlns:inkscape="http://www.inkscape.org/namespaces/inkscape"
   xmlns:sodipodi="http://sodipodi.sourceforge.net/DTD/sodipodi-0.dtd"
   xmlns="http://www.w3.org/2000/svg"
   xmlns:svg="http://www.w3.org/2000/svg"
   xmlns:rdf="http://www.w3.org/1999/02/22-rdf-syntax-ns#"
   xmlns:cc="http://creativecommons.org/ns#"
   xmlns:dc="http://purl.org/dc/elements/1.1/"><metadata
   id="metadata430"><rdf:RDF><cc:Work
       rdf:about=""><dc:format>image/svg+xml</dc:format><dc:type
         rdf:resource="http://purl.org/dc/dcmitype/StillImage" /><dc:title>Asset 1</dc:title></cc:Work></rdf:RDF></metadata><defs
   id="defs428"><clipPath
     clipPathUnits="userSpaceOnUse"
     id="clipPath2118"><rect
       style="fill:#000000;stroke:#3f4b8c;stroke-width:3.77953;stroke-opacity:0.85098"
       id="rect2120"
       width="216.79892"
       height="82.758186"
       x="1.0607413"
       y="1.0930089" /></clipPath></defs><sodipodi:namedview
   pagecolor="#ffffff"
   bordercolor="#666666"
   borderopacity="1"
   objecttolerance="10"
   gridtolerance="10"
   guidetolerance="10"
   inkscape:pageopacity="0"
   inkscape:pageshadow="2"
   inkscape:window-width="1920"
   inkscape:window-height="1023"
   id="namedview426"
   showgrid="false"
   inkscape:zoom="3.0453671"
   inkscape:cx="141.69064"
   inkscape:cy="14.776544"
   inkscape:window-x="0"
   inkscape:window-y="27"
   inkscape:window-maximized="1"
   inkscape:current-layer="Layer_1"
   inkscape:pagecheckerboard="0"
   fit-margin-top="0"
   fit-margin-left="0"
   fit-margin-right="0"
   fit-margin-bottom="0" />
<style
   type="text/css"
   id="style2">
	.st0{fill:url(#SVGID_1_);}
	.st1{fill:url(#SVGID_2_);}
	.st2{fill:url(#SVGID_3_);}
	.st3{fill:url(#SVGID_4_);}
	.st4{fill:url(#SVGID_5_);}
	.st5{fill:url(#SVGID_6_);}
	.st6{fill:url(#SVGID_7_);}
	.st7{fill:url(#SVGID_8_);}
	.st8{fill:url(#SVGID_9_);}
	.st9{fill:url(#SVGID_10_);}
	.st10{fill:url(#SVGID_11_);}
	.st11{fill:url(#SVGID_12_);}
	.st12{fill:url(#SVGID_13_);}
	.st13{fill:url(#SVGID_14_);}
	.st14{fill:url(#SVGID_15_);}
	.st15{fill:url(#SVGID_16_);}
	.st16{fill:url(#SVGID_17_);}
	.st17{fill:url(#SVGID_18_);}
	.st18{fill:url(#SVGID_19_);}
	.st19{fill:url(#SVGID_20_);}
	.st20{fill:url(#SVGID_21_);}
	.st21{fill:url(#SVGID_22_);}
	.st22{fill:url(#SVGID_23_);}
	.st23{fill:url(#SVGID_24_);}
	.st24{fill:url(#SVGID_25_);}
	.st25{fill:url(#SVGID_26_);}
	.st26{fill:url(#SVGID_27_);}
	.st27{fill:url(#SVGID_28_);}
	.st28{fill:url(#SVGID_29_);}
	.st29{fill:url(#SVGID_30_);}
	.st30{fill:url(#SVGID_31_);}
	.st31{fill:url(#SVGID_32_);}
</style>
<title
   id="title4">Asset 1</title>
<g
   id="g2012"
   clip-path="url(#clipPath2118)"
   transform="translate(-1.0607413,-1.0930089)"><g
     id="g423"
     style="fill:#000000;fill-opacity:1">
	<g
   id="Layer_1-2"
   style="fill:#000000;fill-opacity:1">
		
			<linearGradient
   id="SVGID_1_"
   gradientUnits="userSpaceOnUse"
   x1="104.11"
   y1="70.3134"
   x2="197.24001"
   y2="70.3134"
   gradientTransform="matrix(1,0,0,-1,0,88)">
			<stop
   offset="0"
   style="stop-color:#FBD572"
   id="stop6" />
			<stop
   offset="0.22"
   style="stop-color:#F3A957"
   id="stop8" />
			<stop
   offset="0.36"
   style="stop-color:#EF9248"
   id="stop10" />
			<stop
   offset="0.54"
   style="stop-color:#CE7329"
   id="stop12" />
			<stop
   offset="1"
   style="stop-color:#92471B"
   id="stop14" />
		</linearGradient>
		<path
   class="st0"
   d="m 104.1,27.2 c 0,0 8.5,-6.3 13.6,-10 0,0 14.5,-10.2 27.1,-14.1 0,0 13.6,-4.5 27.4,-2.7 0,0 16.2,1.5 24.9,12.2 -2.9,-1.3 -5.9,-2.3 -9,-3.1 0,0 -10.3,-2 -16.7,-1.2 -8.8,0.7 -17.3,3 -25.2,6.8 0,0 -11,5.9 -14.6,8.3 0,0 -15.1,10.7 -16.8,11.9 z"
   id="path17"
   style="fill:#000000;fill-opacity:1" />
		
			<linearGradient
   id="SVGID_2_"
   gradientUnits="userSpaceOnUse"
   x1="118.87"
   y1="42.2015"
   x2="215.2442"
   y2="42.2015"
   gradientTransform="matrix(1,0,0,-1,0,88)">
			<stop
   offset="0"
   style="stop-color:#FBD572"
   id="stop19" />
			<stop
   offset="0.22"
   style="stop-color:#F3A957"
   id="stop21" />
			<stop
   offset="0.36"
   style="stop-color:#EF9248"
   id="stop23" />
			<stop
   offset="0.54"
   style="stop-color:#CE7329"
   id="stop25" />
			<stop
   offset="1"
   style="stop-color:#92471B"
   id="stop27" />
		</linearGradient>
		<path
   class="st1"
   d="m 193.7,9.1 c 1.3,1.1 2.4,2.3 3.5,3.5 2,2.3 3.6,5 4.8,7.8 0,0 1.6,3 2.1,9.8 0,0 0.8,5.2 -1.9,13.2 -4.3,10.8 -12.6,19.6 -23.2,24.5 0,0 -21.3,11.7 -43.9,3.6 0,0 -6.7,-2.4 -9.4,-4.3 0,0 -4.2,-2.5 -5.3,-3.3 l -1.5,-1.1 c 0,0 4.7,3.5 6.9,5.1 0,0 5.9,4.5 8.2,5.9 3,1.8 6.1,3.5 9.4,4.9 3.2,1.3 6.5,2.3 9.9,3 2.7,0.5 5.5,0.8 8.2,0.9 4,0.1 8,-0.2 11.9,-0.9 0,0 7.1,-1.3 11.1,-3 5.8,-2.1 11.2,-5.2 15.9,-9.2 5.6,-4.5 10,-10.3 12.6,-17 0,0 6.2,-14.5 -2.1,-27.9 0,0 -1.7,-3.6 -8.7,-9.1 l -5.4,-4 z"
   id="path30"
   style="fill:#000000;fill-opacity:1" />
		
			<linearGradient
   id="SVGID_3_"
   gradientUnits="userSpaceOnUse"
   x1="116.71"
   y1="57.689301"
   x2="183.82001"
   y2="57.689301"
   gradientTransform="matrix(1,0,0,-1,0,88)">
			<stop
   offset="0"
   style="stop-color:#FBD572"
   id="stop32" />
			<stop
   offset="0.22"
   style="stop-color:#F3A957"
   id="stop34" />
			<stop
   offset="0.36"
   style="stop-color:#EF9248"
   id="stop36" />
			<stop
   offset="0.54"
   style="stop-color:#CE7329"
   id="stop38" />
			<stop
   offset="1"
   style="stop-color:#92471B"
   id="stop40" />
		</linearGradient>
		<path
   class="st2"
   d="m 116.7,37.3 11,8.3 c 0,0 14.7,-11 19.3,-13.5 0,0 9.6,-5.9 17.9,-7.7 0,0 9.6,-2.9 18.9,0.2 -1.7,-2.5 -3.9,-4.6 -6.5,-6.2 0,0 -5.2,-3.5 -13.8,-3.5 -5.4,-0.1 -10.8,0.9 -15.8,3 0,0 -9.4,4 -14.2,7.3 -0.1,0.2 -13.6,9.3 -16.8,12.1 z"
   id="path43"
   style="fill:#000000;fill-opacity:1" />
		
			<linearGradient
   id="SVGID_4_"
   gradientUnits="userSpaceOnUse"
   x1="132.45"
   y1="44.9109"
   x2="195.7422"
   y2="44.9109"
   gradientTransform="matrix(1,0,0,-1,0,88)">
			<stop
   offset="0"
   style="stop-color:#FBD572"
   id="stop45" />
			<stop
   offset="0.22"
   style="stop-color:#F3A957"
   id="stop47" />
			<stop
   offset="0.36"
   style="stop-color:#EF9248"
   id="stop49" />
			<stop
   offset="0.54"
   style="stop-color:#CE7329"
   id="stop51" />
			<stop
   offset="1"
   style="stop-color:#92471B"
   id="stop53" />
		</linearGradient>
		<path
   class="st3"
   d="m 178.6,19.4 c 1.4,1.3 2.7,2.7 3.7,4.3 0.8,1.3 1.4,2.7 1.8,4.1 0,0 1.3,2.8 0.6,8.3 0,0 -0.3,5.2 -5.1,11.1 -3.1,3.6 -6.9,6.5 -11.2,8.4 -4.8,2.1 -10,3.1 -15.3,2.8 -6,-0.4 -11.7,-2.2 -16.8,-5.4 l -3.9,-2.8 c 0,0 3.6,3 5,4 0,0 6.3,5 8.9,6.5 3,2 6.3,3.6 9.8,4.6 4.8,1.4 9.8,1.7 14.7,1 5.9,-0.9 11.4,-3.4 16,-7.2 0,0 4.2,-3 7.4,-9.9 1.7,-4.2 1.9,-8.7 0.7,-13.1 0,0 -0.5,-3.4 -5,-8 0,0 -2.1,-1.7 -3.6,-2.9 l -3.9,-3 z"
   id="path56"
   style="fill:#000000;fill-opacity:1" />
		
			<linearGradient
   id="SVGID_5_"
   gradientUnits="userSpaceOnUse"
   x1="116.71"
   y1="42.215"
   x2="137.47"
   y2="42.215"
   gradientTransform="matrix(1,0,0,-1,0,88)">
			<stop
   offset="0"
   style="stop-color:#FBD572"
   id="stop58" />
			<stop
   offset="0.22"
   style="stop-color:#F3A957"
   id="stop60" />
			<stop
   offset="0.36"
   style="stop-color:#EF9248"
   id="stop62" />
			<stop
   offset="0.54"
   style="stop-color:#CE7329"
   id="stop64" />
			<stop
   offset="1"
   style="stop-color:#92471B"
   id="stop66" />
		</linearGradient>
		<path
   class="st4"
   d="m 116.7,37.3 11.2,8.3 c 0,0 9.2,8.3 9.6,8.6 0,0 -8.8,-6.1 -10.4,-7.8 z"
   id="path69"
   style="fill:#000000;fill-opacity:1" />
		
			<linearGradient
   id="SVGID_6_"
   gradientUnits="userSpaceOnUse"
   x1="19.27"
   y1="21.858801"
   x2="111.62"
   y2="21.858801"
   gradientTransform="matrix(1,0,0,-1,0,88)">
			<stop
   offset="0"
   style="stop-color:#FBD572"
   id="stop71" />
			<stop
   offset="0.22"
   style="stop-color:#F3A957"
   id="stop73" />
			<stop
   offset="0.36"
   style="stop-color:#EF9248"
   id="stop75" />
			<stop
   offset="0.54"
   style="stop-color:#CE7329"
   id="stop77" />
			<stop
   offset="1"
   style="stop-color:#92471B"
   id="stop79" />
		</linearGradient>
		<path
   class="st5"
   d="m 111.6,55 c 0,0 -8.2,6.7 -13.2,10.6 0,0 -14.1,10.9 -26.5,15.3 0,0 -13.3,5.2 -27.3,3.9 0,0 -16.2,-0.7 -25.4,-11 2.9,1.1 6,2 9.1,2.6 0,0 10.4,1.5 16.8,0.5 8.7,-1.1 17.1,-3.9 24.9,-8 0,0 10.7,-6.4 14.2,-9 l 16.2,-12.7 z"
   id="path82"
   style="fill:#000000;fill-opacity:1" />
		
			<linearGradient
   id="SVGID_7_"
   gradientUnits="userSpaceOnUse"
   x1="0.00052125199"
   y1="48.616001"
   x2="95.099998"
   y2="48.616001"
   gradientTransform="matrix(1,0,0,-1,0,88)">
			<stop
   offset="0"
   style="stop-color:#FBD572"
   id="stop84" />
			<stop
   offset="0.22"
   style="stop-color:#F3A957"
   id="stop86" />
			<stop
   offset="0.36"
   style="stop-color:#EF9248"
   id="stop88" />
			<stop
   offset="0.54"
   style="stop-color:#CE7329"
   id="stop90" />
			<stop
   offset="1"
   style="stop-color:#92471B"
   id="stop92" />
		</linearGradient>
		<path
   class="st6"
   d="m 22.9,77.2 c -1.3,-1 -2.5,-2.2 -3.7,-3.4 -2.1,-2.3 -3.8,-4.8 -5.1,-7.7 0,0 -1.7,-2.9 -2.6,-9.8 0,0 -1,-5.2 1.3,-13.4 3.8,-11.1 11.7,-20.3 22,-25.8 0,0 20.8,-12.8 43.6,-5.7 0,0 6.8,2.1 9.6,3.9 0,0 4.3,2.4 5.4,3.1 l 1.6,1 c 0,0 -4.8,-3.3 -7.1,-4.8 0,0 -6.1,-4.2 -8.5,-5.6 C 76.3,7.3 73.2,5.8 69.9,4.5 66.6,3.4 63.3,2.5 59.9,2 57.2,1.6 54.4,1.5 51.7,1.5 c -4,0.1 -7.9,0.6 -11.8,1.4 0,0 -7,1.6 -11,3.6 C 23.3,9 18,12.4 13.5,16.6 8.1,21.4 4,27.5 1.7,34.3 c 0,0 -5.6,14.9 3.3,28.1 0,0 1.8,3.6 9.1,8.8 l 5.6,3.8 z"
   id="path95"
   style="fill:#000000;fill-opacity:1" />
		
			<linearGradient
   id="SVGID_8_"
   gradientUnits="userSpaceOnUse"
   x1="32.400002"
   y1="34.122898"
   x2="98.809998"
   y2="34.122898"
   gradientTransform="matrix(1,0,0,-1,0,88)">
			<stop
   offset="0"
   style="stop-color:#FBD572"
   id="stop97" />
			<stop
   offset="0.22"
   style="stop-color:#F3A957"
   id="stop99" />
			<stop
   offset="0.36"
   style="stop-color:#EF9248"
   id="stop101" />
			<stop
   offset="0.54"
   style="stop-color:#CE7329"
   id="stop103" />
			<stop
   offset="1"
   style="stop-color:#92471B"
   id="stop105" />
		</linearGradient>
		<path
   class="st7"
   d="M 98.8,45.5 87.5,37.7 c 0,0 -14.2,11.6 -18.6,14.4 0,0 -9.3,6.3 -17.6,8.5 0,0 -9.5,3.4 -18.9,0.7 1.8,2.4 4.1,4.4 6.7,5.8 0,0 5.3,3.2 14,2.8 5.4,-0.2 10.7,-1.4 15.6,-3.8 0,0 9.2,-4.5 13.9,-7.9 0.1,0.1 13.2,-9.7 16.2,-12.7 z"
   id="path108"
   style="fill:#000000;fill-opacity:1" />
		
			<linearGradient
   id="SVGID_9_"
   gradientUnits="userSpaceOnUse"
   x1="17.9263"
   y1="46.696499"
   x2="82.25"
   y2="46.696499"
   gradientTransform="matrix(1,0,0,-1,0,88)">
			<stop
   offset="0"
   style="stop-color:#FBD572"
   id="stop110" />
			<stop
   offset="0.22"
   style="stop-color:#F3A957"
   id="stop112" />
			<stop
   offset="0.36"
   style="stop-color:#EF9248"
   id="stop114" />
			<stop
   offset="0.54"
   style="stop-color:#CE7329"
   id="stop116" />
			<stop
   offset="1"
   style="stop-color:#92471B"
   id="stop118" />
		</linearGradient>
		<path
   class="st8"
   d="m 36.4,65.3 c -1.5,-1.2 -2.8,-2.6 -4,-4.1 -0.8,-1.3 -1.5,-2.6 -2,-4 0,0 -1.4,-2.8 -1,-8.3 0,0 0.1,-5.2 4.6,-11.4 2.9,-3.8 6.7,-6.9 11,-9 4.8,-2.4 10,-3.6 15.4,-3.5 6.1,0.1 12,1.7 17.3,4.6 l 4.6,3 c 0,0 -4.3,-3.1 -5.8,-4.1 0,0 -6.6,-4.7 -9.3,-6.1 -3.1,-1.9 -6.6,-3.3 -10.1,-4.2 -4.9,-1.2 -10,-1.3 -15,-0.3 -5.9,1.2 -11.4,4 -15.9,8 0,0 -4.1,3.2 -7.1,10.2 -1.5,4.2 -1.6,8.8 -0.2,13.1 0,0 0.7,3.4 5.4,7.8 0,0 2.2,1.6 3.8,2.7 l 4.1,2.8 z"
   id="path121"
   style="fill:#000000;fill-opacity:1" />
		
			<linearGradient
   id="SVGID_10_"
   gradientUnits="userSpaceOnUse"
   x1="91.349998"
   y1="61.674999"
   x2="114.96"
   y2="61.674999"
   gradientTransform="matrix(1,0,0,-1,0,88)">
			<stop
   offset="0"
   style="stop-color:#FBD572"
   id="stop123" />
			<stop
   offset="0.22"
   style="stop-color:#F3A957"
   id="stop125" />
			<stop
   offset="0.36"
   style="stop-color:#EF9248"
   id="stop127" />
			<stop
   offset="0.54"
   style="stop-color:#CE7329"
   id="stop129" />
			<stop
   offset="1"
   style="stop-color:#92471B"
   id="stop131" />
		</linearGradient>
		<path
   class="st9"
   d="m 115,35.4 -7.5,-5.2 -4.6,-3.2 -5.6,-4.9 -5.9,-5 c 0,0 3.5,2 6.2,3.9 0,0 5.5,4 6.5,4.9 -0.1,0.2 8.2,7.1 10.9,9.5 z"
   id="path134"
   style="fill:#000000;fill-opacity:1" />
		
			<linearGradient
   id="SVGID_11_"
   gradientUnits="userSpaceOnUse"
   x1="77.690002"
   y1="50.415001"
   x2="98.809998"
   y2="50.415001"
   gradientTransform="matrix(1,0,0,-1,0,88)">
			<stop
   offset="0"
   style="stop-color:#FBD572"
   id="stop136" />
			<stop
   offset="0.22"
   style="stop-color:#F3A957"
   id="stop138" />
			<stop
   offset="0.36"
   style="stop-color:#EF9248"
   id="stop140" />
			<stop
   offset="0.54"
   style="stop-color:#CE7329"
   id="stop142" />
			<stop
   offset="1"
   style="stop-color:#92471B"
   id="stop144" />
		</linearGradient>
		<path
   class="st10"
   d="M 98.8,45.5 87.5,37.7 c 0,0 -9.4,-7.9 -9.8,-8.1 0,0 8.9,5.7 10.5,7.2 z"
   id="path147"
   style="fill:#000000;fill-opacity:1" />
		
			<linearGradient
   id="SVGID_12_"
   gradientUnits="userSpaceOnUse"
   x1="100.52"
   y1="31.26"
   x2="123.86"
   y2="31.26"
   gradientTransform="matrix(1,0,0,-1,0,88)">
			<stop
   offset="0"
   style="stop-color:#FBD572"
   id="stop149" />
			<stop
   offset="0.22"
   style="stop-color:#F3A957"
   id="stop151" />
			<stop
   offset="0.36"
   style="stop-color:#EF9248"
   id="stop153" />
			<stop
   offset="0.54"
   style="stop-color:#CE7329"
   id="stop155" />
			<stop
   offset="1"
   style="stop-color:#92471B"
   id="stop157" />
		</linearGradient>
		<path
   class="st11"
   d="m 100.5,47.3 8.1,5.4 4.4,3.3 5.3,5 5.6,5.1 c 0,0 -3.4,-2.2 -5.9,-4.2 0,0 -5.2,-4.2 -6.2,-5.1 0,0.1 -8.8,-7 -11.3,-9.5 z"
   id="path160"
   style="fill:#000000;fill-opacity:1" />
		
			<linearGradient
   id="SVGID_13_"
   gradientUnits="userSpaceOnUse"
   x1="227.49001"
   y1="76.589996"
   x2="344.42001"
   y2="76.589996"
   gradientTransform="matrix(1,0,0,-1,0,88)">
			<stop
   offset="0"
   style="stop-color:#FBD572"
   id="stop162" />
			<stop
   offset="0.22"
   style="stop-color:#F3A957"
   id="stop164" />
			<stop
   offset="0.36"
   style="stop-color:#EF9248"
   id="stop166" />
			<stop
   offset="0.54"
   style="stop-color:#CE7329"
   id="stop168" />
			<stop
   offset="1"
   style="stop-color:#92471B"
   id="stop170" />
		</linearGradient>
		<path
   class="st12"
   d="M 238.8,20.3 H 228.6 V 2.5 h 10.2 v 3.1 h -6.5 v 3.9 h 6 v 3.1 h -6 v 4.6 h 6.5 z"
   id="path173"
   style="fill:#000000;fill-opacity:1" />
		
			<linearGradient
   id="SVGID_14_"
   gradientUnits="userSpaceOnUse"
   x1="227.49001"
   y1="74.496597"
   x2="344.42001"
   y2="74.496597"
   gradientTransform="matrix(1,0,0,-1,0,88)">
			<stop
   offset="0"
   style="stop-color:#FBD572"
   id="stop175" />
			<stop
   offset="0.22"
   style="stop-color:#F3A957"
   id="stop177" />
			<stop
   offset="0.36"
   style="stop-color:#EF9248"
   id="stop179" />
			<stop
   offset="0.54"
   style="stop-color:#CE7329"
   id="stop181" />
			<stop
   offset="1"
   style="stop-color:#92471B"
   id="stop183" />
		</linearGradient>
		<path
   class="st13"
   d="m 247.8,20.6 c -4.2,0 -6.4,-2.3 -6.4,-7 -0.1,-1.9 0.5,-3.8 1.7,-5.3 1.3,-1.3 3.1,-2 5,-1.8 1.5,0 2.9,0.3 4.2,0.9 l -1.1,2.9 c -0.5,-0.2 -1.1,-0.4 -1.6,-0.6 -0.5,-0.2 -1,-0.2 -1.5,-0.2 -1.9,0 -2.9,1.4 -2.9,4.1 0,2.7 1,4.1 2.9,4 0.7,0 1.4,-0.1 2,-0.3 0.6,-0.2 1.3,-0.5 1.8,-0.9 v 3.2 c -0.6,0.4 -1.2,0.6 -1.8,0.8 -0.7,0.1 -1.5,0.2 -2.3,0.2 z"
   id="path186"
   style="fill:#000000;fill-opacity:1" />
		
			<linearGradient
   id="SVGID_15_"
   gradientUnits="userSpaceOnUse"
   x1="227.49001"
   y1="74.495598"
   x2="344.42001"
   y2="74.495598"
   gradientTransform="matrix(1,0,0,-1,0,88)">
			<stop
   offset="0"
   style="stop-color:#FBD572"
   id="stop188" />
			<stop
   offset="0.22"
   style="stop-color:#F3A957"
   id="stop190" />
			<stop
   offset="0.36"
   style="stop-color:#EF9248"
   id="stop192" />
			<stop
   offset="0.54"
   style="stop-color:#CE7329"
   id="stop194" />
			<stop
   offset="1"
   style="stop-color:#92471B"
   id="stop196" />
		</linearGradient>
		<path
   class="st14"
   d="m 267.4,13.5 c 0.1,1.9 -0.5,3.8 -1.8,5.2 -1.3,1.3 -3.1,2 -4.9,1.9 -1.2,0 -2.4,-0.3 -3.5,-0.9 -1,-0.6 -1.8,-1.4 -2.3,-2.5 -0.6,-1.2 -0.8,-2.5 -0.8,-3.8 -0.1,-1.9 0.5,-3.8 1.8,-5.2 1.3,-1.3 3.1,-2 4.9,-1.9 1.2,0 2.4,0.3 3.5,0.9 1,0.6 1.8,1.4 2.3,2.4 0.6,1.3 0.9,2.6 0.8,3.9 z m -9.4,0 c -0.1,1.1 0.2,2.1 0.7,3.1 0.9,1.2 2.7,1.4 3.9,0.4 0.2,-0.1 0.3,-0.3 0.4,-0.4 0.5,-0.9 0.7,-2 0.6,-3.1 0.1,-1.1 -0.2,-2.1 -0.7,-3.1 -1,-1.2 -2.7,-1.4 -3.9,-0.4 -0.1,0.1 -0.3,0.2 -0.4,0.4 -0.4,1 -0.7,2 -0.6,3.1 z"
   id="path199"
   style="fill:#000000;fill-opacity:1" />
		
			<linearGradient
   id="SVGID_16_"
   gradientUnits="userSpaceOnUse"
   x1="227.49001"
   y1="74.625999"
   x2="344.42001"
   y2="74.625999"
   gradientTransform="matrix(1,0,0,-1,0,88)">
			<stop
   offset="0"
   style="stop-color:#FBD572"
   id="stop201" />
			<stop
   offset="0.22"
   style="stop-color:#F3A957"
   id="stop203" />
			<stop
   offset="0.36"
   style="stop-color:#EF9248"
   id="stop205" />
			<stop
   offset="0.54"
   style="stop-color:#CE7329"
   id="stop207" />
			<stop
   offset="1"
   style="stop-color:#92471B"
   id="stop209" />
		</linearGradient>
		<path
   class="st15"
   d="m 283,20.3 h -3.7 v -8 c 0,-0.8 -0.1,-1.5 -0.5,-2.2 -0.4,-0.5 -1,-0.8 -1.7,-0.7 -0.9,-0.1 -1.7,0.3 -2.2,1 -0.5,1.1 -0.8,2.3 -0.7,3.5 v 6.4 h -3.7 V 6.7 h 2.8 l 0.5,1.8 h 0.2 c 0.4,-0.7 1,-1.2 1.7,-1.5 0.8,-0.3 1.6,-0.5 2.5,-0.5 1.3,-0.1 2.6,0.4 3.6,1.3 0.9,1 1.3,2.4 1.2,3.7 z"
   id="path212"
   style="fill:#000000;fill-opacity:1" />
		
			<linearGradient
   id="SVGID_17_"
   gradientUnits="userSpaceOnUse"
   x1="227.49001"
   y1="74.495796"
   x2="344.42001"
   y2="74.495796"
   gradientTransform="matrix(1,0,0,-1,0,88)">
			<stop
   offset="0"
   style="stop-color:#FBD572"
   id="stop214" />
			<stop
   offset="0.22"
   style="stop-color:#F3A957"
   id="stop216" />
			<stop
   offset="0.36"
   style="stop-color:#EF9248"
   id="stop218" />
			<stop
   offset="0.54"
   style="stop-color:#CE7329"
   id="stop220" />
			<stop
   offset="1"
   style="stop-color:#92471B"
   id="stop222" />
		</linearGradient>
		<path
   class="st16"
   d="m 299.2,13.5 c 0.1,1.9 -0.5,3.8 -1.8,5.2 -1.3,1.3 -3.1,2 -4.9,1.9 -1.2,0 -2.4,-0.3 -3.5,-0.9 -1,-0.6 -1.8,-1.4 -2.3,-2.5 -0.6,-1.2 -0.8,-2.5 -0.8,-3.8 -0.1,-1.9 0.5,-3.8 1.7,-5.2 1.3,-1.3 3.1,-2 4.9,-1.9 1.2,0 2.4,0.3 3.5,0.9 1,0.6 1.8,1.4 2.3,2.4 0.7,1.3 0.9,2.6 0.9,3.9 z m -9.4,0 c -0.1,1.1 0.2,2.1 0.7,3.1 0.5,0.7 1.3,1.1 2.2,1 0.8,0.1 1.7,-0.3 2.1,-1 0.5,-0.9 0.7,-2 0.6,-3.1 0.1,-1.1 -0.2,-2.1 -0.6,-3.1 -0.5,-0.7 -1.3,-1.1 -2.2,-1 -0.8,-0.1 -1.7,0.3 -2.1,1 -0.5,1 -0.8,2 -0.7,3.1 z"
   id="path225"
   style="fill:#000000;fill-opacity:1" />
		
			<linearGradient
   id="SVGID_18_"
   gradientUnits="userSpaceOnUse"
   x1="227.49001"
   y1="74.576103"
   x2="344.42001"
   y2="74.576103"
   gradientTransform="matrix(1,0,0,-1,0,88)">
			<stop
   offset="0"
   style="stop-color:#FBD572"
   id="stop227" />
			<stop
   offset="0.22"
   style="stop-color:#F3A957"
   id="stop229" />
			<stop
   offset="0.36"
   style="stop-color:#EF9248"
   id="stop231" />
			<stop
   offset="0.54"
   style="stop-color:#CE7329"
   id="stop233" />
			<stop
   offset="1"
   style="stop-color:#92471B"
   id="stop235" />
		</linearGradient>
		<path
   class="st17"
   d="m 314.5,20.3 h -3.7 v -8 c 0,-0.8 -0.1,-1.5 -0.5,-2.2 -0.4,-0.5 -0.9,-0.8 -1.5,-0.7 -0.8,-0.1 -1.6,0.3 -2.1,1.1 -0.5,1.1 -0.7,2.3 -0.6,3.4 v 6.4 h -3.7 V 6.7 h 2.8 l 0.5,1.8 h 0.2 c 0.4,-0.6 0.9,-1.1 1.6,-1.4 0.7,-0.4 1.6,-0.6 2.4,-0.5 2,0 3.4,0.7 4.1,2 h 0.3 c 0.4,-0.6 0.9,-1.1 1.6,-1.5 0.7,-0.4 1.6,-0.5 2.4,-0.5 1.3,-0.1 2.5,0.3 3.5,1.2 0.9,1.1 1.3,2.4 1.2,3.8 v 8.9 h -3.7 v -8 c 0,-0.8 -0.1,-1.5 -0.5,-2.2 -0.4,-0.5 -0.9,-0.8 -1.5,-0.7 -0.8,0 -1.5,0.3 -2,1 -0.5,0.9 -0.8,2 -0.7,3.1 z"
   id="path238"
   style="fill:#000000;fill-opacity:1" />
		
			<linearGradient
   id="SVGID_19_"
   gradientUnits="userSpaceOnUse"
   x1="227.49001"
   y1="77.165001"
   x2="344.42001"
   y2="77.165001"
   gradientTransform="matrix(1,0,0,-1,0,88)">
			<stop
   offset="0"
   style="stop-color:#FBD572"
   id="stop240" />
			<stop
   offset="0.22"
   style="stop-color:#F3A957"
   id="stop242" />
			<stop
   offset="0.36"
   style="stop-color:#EF9248"
   id="stop244" />
			<stop
   offset="0.54"
   style="stop-color:#CE7329"
   id="stop246" />
			<stop
   offset="1"
   style="stop-color:#92471B"
   id="stop248" />
		</linearGradient>
		<path
   class="st18"
   d="m 326.6,3.2 c 0,-1.2 0.7,-1.8 2,-1.8 1.3,0 2,0.6 2,1.8 0,0.5 -0.1,1 -0.5,1.3 -0.4,0.3 -0.9,0.5 -1.5,0.5 -1.4,0 -2,-0.6 -2,-1.8 z m 3.8,17.1 h -3.7 V 6.7 h 3.7 z"
   id="path251"
   style="fill:#000000;fill-opacity:1" />
		
			<linearGradient
   id="SVGID_20_"
   gradientUnits="userSpaceOnUse"
   x1="227.49001"
   y1="74.495903"
   x2="344.42001"
   y2="74.495903"
   gradientTransform="matrix(1,0,0,-1,0,88)">
			<stop
   offset="0"
   style="stop-color:#FBD572"
   id="stop253" />
			<stop
   offset="0.22"
   style="stop-color:#F3A957"
   id="stop255" />
			<stop
   offset="0.36"
   style="stop-color:#EF9248"
   id="stop257" />
			<stop
   offset="0.54"
   style="stop-color:#CE7329"
   id="stop259" />
			<stop
   offset="1"
   style="stop-color:#92471B"
   id="stop261" />
		</linearGradient>
		<path
   class="st19"
   d="m 339.9,20.6 c -4.2,0 -6.4,-2.3 -6.4,-7 -0.1,-1.9 0.5,-3.8 1.7,-5.3 1.3,-1.3 3.1,-2 5,-1.8 1.5,0 2.9,0.3 4.2,0.9 l -1.1,2.9 c -0.6,-0.2 -1.1,-0.4 -1.6,-0.6 -0.5,-0.1 -1,-0.2 -1.5,-0.2 -1.9,0 -2.9,1.4 -2.9,4.1 0,2.7 1,4.1 2.9,4 0.7,0 1.4,-0.1 2,-0.3 0.7,-0.2 1.3,-0.5 1.8,-0.9 v 3.2 c -0.6,0.4 -1.2,0.6 -1.8,0.8 -0.8,0.1 -1.6,0.2 -2.3,0.2 z"
   id="path264"
   style="fill:#000000;fill-opacity:1" />
		
			<linearGradient
   id="SVGID_21_"
   gradientUnits="userSpaceOnUse"
   x1="227.49001"
   y1="46.563801"
   x2="344.42001"
   y2="46.563801"
   gradientTransform="matrix(1,0,0,-1,0,88)">
			<stop
   offset="0"
   style="stop-color:#FBD572"
   id="stop266" />
			<stop
   offset="0.22"
   style="stop-color:#F3A957"
   id="stop268" />
			<stop
   offset="0.36"
   style="stop-color:#EF9248"
   id="stop270" />
			<stop
   offset="0.54"
   style="stop-color:#CE7329"
   id="stop272" />
			<stop
   offset="1"
   style="stop-color:#92471B"
   id="stop274" />
		</linearGradient>
		<path
   class="st20"
   d="m 243.3,41.3 c 0,2.9 -0.8,5.2 -2.5,6.8 -1.7,1.6 -4.1,2.3 -7.2,2.3 h -5 V 32.5 h 5.6 c 2.5,-0.2 4.9,0.7 6.8,2.3 1.6,1.7 2.5,4.1 2.3,6.5 z m -3.9,0.1 c 0,-3.8 -1.7,-5.8 -5.1,-5.8 h -2 v 11.6 h 1.6 c 3.7,0 5.5,-1.9 5.5,-5.8 z"
   id="path277"
   style="fill:#000000;fill-opacity:1" />
		
			<linearGradient
   id="SVGID_22_"
   gradientUnits="userSpaceOnUse"
   x1="227.49001"
   y1="44.469898"
   x2="344.42001"
   y2="44.469898"
   gradientTransform="matrix(1,0,0,-1,0,88)">
			<stop
   offset="0"
   style="stop-color:#FBD572"
   id="stop279" />
			<stop
   offset="0.22"
   style="stop-color:#F3A957"
   id="stop281" />
			<stop
   offset="0.36"
   style="stop-color:#EF9248"
   id="stop283" />
			<stop
   offset="0.54"
   style="stop-color:#CE7329"
   id="stop285" />
			<stop
   offset="1"
   style="stop-color:#92471B"
   id="stop287" />
		</linearGradient>
		<path
   class="st21"
   d="m 255.4,50.4 -0.7,-1.9 h -0.1 c -0.5,0.7 -1.2,1.3 -1.9,1.6 -0.8,0.3 -1.7,0.5 -2.6,0.5 -1.1,0.1 -2.2,-0.4 -3,-1.1 -0.8,-0.9 -1.2,-2 -1.1,-3.2 -0.1,-1.3 0.5,-2.5 1.5,-3.2 1.4,-0.8 3,-1.2 4.6,-1.2 l 2.4,-0.1 v -0.6 c 0.1,-1 -0.6,-1.9 -1.6,-2.1 -0.2,0 -0.3,0 -0.5,0 -1.3,0.1 -2.6,0.4 -3.8,1 l -1.2,-2.5 c 1.6,-0.8 3.4,-1.3 5.2,-1.2 1.5,-0.1 3,0.3 4.2,1.2 1,0.9 1.6,2.3 1.5,3.6 v 9.1 h -2.9 z m -1.1,-6.3 h -1.4 c -0.8,0 -1.7,0.2 -2.4,0.6 -0.5,0.4 -0.8,1 -0.8,1.6 0,1 0.6,1.6 1.8,1.6 0.8,0 1.5,-0.2 2.1,-0.8 0.5,-0.5 0.8,-1.3 0.8,-2 z"
   id="path290"
   style="fill:#000000;fill-opacity:1" />
		
			<linearGradient
   id="SVGID_23_"
   gradientUnits="userSpaceOnUse"
   x1="227.49001"
   y1="45.776501"
   x2="344.42001"
   y2="45.776501"
   gradientTransform="matrix(1,0,0,-1,0,88)">
			<stop
   offset="0"
   style="stop-color:#FBD572"
   id="stop292" />
			<stop
   offset="0.22"
   style="stop-color:#F3A957"
   id="stop294" />
			<stop
   offset="0.36"
   style="stop-color:#EF9248"
   id="stop296" />
			<stop
   offset="0.54"
   style="stop-color:#CE7329"
   id="stop298" />
			<stop
   offset="1"
   style="stop-color:#92471B"
   id="stop300" />
		</linearGradient>
		<path
   class="st22"
   d="m 267.5,47.7 c 0.8,0 1.6,-0.2 2.3,-0.4 V 50 c -1.1,0.4 -2.2,0.7 -3.4,0.6 -1.2,0.1 -2.4,-0.3 -3.2,-1.1 -0.7,-1 -1.1,-2.2 -1,-3.4 v -6.6 h -1.8 v -1.6 l 2,-1.2 1.1,-2.9 h 2.4 v 2.9 h 3.8 v 2.8 h -3.8 v 6.6 c 0,0.4 0.1,0.9 0.4,1.2 0.4,0.2 0.8,0.4 1.2,0.4 z"
   id="path303"
   style="fill:#000000;fill-opacity:1" />
		
			<linearGradient
   id="SVGID_24_"
   gradientUnits="userSpaceOnUse"
   x1="227.49001"
   y1="44.479"
   x2="344.42001"
   y2="44.479"
   gradientTransform="matrix(1,0,0,-1,0,88)">
			<stop
   offset="0"
   style="stop-color:#FBD572"
   id="stop305" />
			<stop
   offset="0.22"
   style="stop-color:#F3A957"
   id="stop307" />
			<stop
   offset="0.36"
   style="stop-color:#EF9248"
   id="stop309" />
			<stop
   offset="0.54"
   style="stop-color:#CE7329"
   id="stop311" />
			<stop
   offset="1"
   style="stop-color:#92471B"
   id="stop313" />
		</linearGradient>
		<path
   class="st23"
   d="m 281.2,50.4 -0.7,-1.9 h -0.1 c -0.5,0.7 -1.2,1.3 -1.9,1.6 -0.8,0.3 -1.7,0.5 -2.6,0.5 -1.1,0.1 -2.2,-0.3 -3.1,-1.1 -0.8,-0.9 -1.2,-2 -1.1,-3.2 -0.1,-1.3 0.5,-2.5 1.5,-3.2 1.4,-0.8 3,-1.2 4.6,-1.2 l 2.4,-0.1 v -0.6 c 0.1,-1 -0.6,-1.9 -1.6,-2.1 -0.2,0 -0.4,0 -0.5,0 -1.3,0.1 -2.6,0.4 -3.8,1 l -1.2,-2.5 c 1.6,-0.8 3.4,-1.3 5.2,-1.2 1.5,-0.1 3,0.3 4.2,1.2 1,0.9 1.6,2.3 1.5,3.6 v 9.1 z m -1.1,-6.3 h -1.4 c -0.8,0 -1.7,0.2 -2.4,0.6 -0.5,0.4 -0.8,1 -0.8,1.6 0,1 0.6,1.6 1.8,1.6 0.8,0 1.5,-0.2 2.1,-0.8 0.5,-0.5 0.8,-1.3 0.8,-2 z"
   id="path316"
   style="fill:#000000;fill-opacity:1" />
		
			<linearGradient
   id="SVGID_25_"
   gradientUnits="userSpaceOnUse"
   x1="227.49001"
   y1="16.5291"
   x2="344.42001"
   y2="16.5291"
   gradientTransform="matrix(1,0,0,-1,0,88)">
			<stop
   offset="0"
   style="stop-color:#FBD572"
   id="stop318" />
			<stop
   offset="0.22"
   style="stop-color:#F3A957"
   id="stop320" />
			<stop
   offset="0.36"
   style="stop-color:#EF9248"
   id="stop322" />
			<stop
   offset="0.54"
   style="stop-color:#CE7329"
   id="stop324" />
			<stop
   offset="1"
   style="stop-color:#92471B"
   id="stop326" />
		</linearGradient>
		<path
   class="st24"
   d="m 239.1,75.4 c 0.1,1.5 -0.6,2.9 -1.7,3.8 -1.4,1 -3.1,1.5 -4.8,1.4 -1.7,0 -3.4,-0.3 -5,-1.1 V 76 c 1,0.5 2,0.8 3,1.1 0.7,0.2 1.5,0.3 2.3,0.3 0.7,0 1.3,-0.1 1.9,-0.5 0.4,-0.3 0.7,-0.9 0.7,-1.4 0,-0.3 -0.1,-0.7 -0.3,-0.9 -0.2,-0.3 -0.5,-0.6 -0.9,-0.8 -0.7,-0.5 -1.5,-0.9 -2.3,-1.2 -0.9,-0.4 -1.7,-0.9 -2.4,-1.5 -0.5,-0.5 -1,-1 -1.3,-1.7 -0.3,-0.7 -0.5,-1.4 -0.5,-2.2 -0.1,-1.4 0.5,-2.8 1.6,-3.7 1.3,-1 2.8,-1.4 4.4,-1.3 0.9,0 1.8,0.1 2.6,0.3 0.9,0.2 1.8,0.6 2.6,0.9 l -1.2,2.9 c -0.8,-0.3 -1.5,-0.6 -2.4,-0.8 -0.6,-0.1 -1.2,-0.2 -1.8,-0.2 -0.6,0 -1.2,0.1 -1.6,0.5 -0.6,0.6 -0.7,1.5 -0.3,2.2 0.2,0.3 0.4,0.5 0.7,0.7 0.8,0.5 1.6,0.9 2.4,1.3 1.3,0.5 2.5,1.4 3.4,2.4 0.6,0.9 0.9,2 0.9,3 z"
   id="path329"
   style="fill:#000000;fill-opacity:1" />
		
			<linearGradient
   id="SVGID_26_"
   gradientUnits="userSpaceOnUse"
   x1="227.49001"
   y1="14.4379"
   x2="344.42001"
   y2="14.4379"
   gradientTransform="matrix(1,0,0,-1,0,88)">
			<stop
   offset="0"
   style="stop-color:#FBD572"
   id="stop331" />
			<stop
   offset="0.22"
   style="stop-color:#F3A957"
   id="stop333" />
			<stop
   offset="0.36"
   style="stop-color:#EF9248"
   id="stop335" />
			<stop
   offset="0.54"
   style="stop-color:#CE7329"
   id="stop337" />
			<stop
   offset="1"
   style="stop-color:#92471B"
   id="stop339" />
		</linearGradient>
		<path
   class="st25"
   d="m 247.5,80.7 c -4.2,0 -6.3,-2.3 -6.4,-7 -0.1,-1.9 0.5,-3.8 1.7,-5.3 1.3,-1.3 3.1,-2 5,-1.8 1.5,0 2.9,0.3 4.2,0.9 l -1.1,2.9 c -0.6,-0.2 -1.1,-0.4 -1.6,-0.6 -0.5,-0.1 -1,-0.2 -1.5,-0.2 -1.9,0 -2.9,1.4 -2.9,4.1 0,2.7 1,4 2.9,4 0.7,0 1.4,-0.1 2,-0.3 0.6,-0.2 1.3,-0.5 1.8,-0.9 v 3.2 c -0.6,0.4 -1.2,0.6 -1.8,0.8 -0.7,0.1 -1.5,0.2 -2.3,0.2 z"
   id="path342"
   style="fill:#000000;fill-opacity:1" />
		
			<linearGradient
   id="SVGID_27_"
   gradientUnits="userSpaceOnUse"
   x1="227.49001"
   y1="17.094999"
   x2="344.42001"
   y2="17.094999"
   gradientTransform="matrix(1,0,0,-1,0,88)">
			<stop
   offset="0"
   style="stop-color:#FBD572"
   id="stop344" />
			<stop
   offset="0.22"
   style="stop-color:#F3A957"
   id="stop346" />
			<stop
   offset="0.36"
   style="stop-color:#EF9248"
   id="stop348" />
			<stop
   offset="0.54"
   style="stop-color:#CE7329"
   id="stop350" />
			<stop
   offset="1"
   style="stop-color:#92471B"
   id="stop352" />
		</linearGradient>
		<path
   class="st26"
   d="m 254.7,63.2 c 0,-1.2 0.7,-1.8 2,-1.8 1.3,0 2,0.6 2,1.8 0,0.5 -0.2,1 -0.5,1.3 -0.4,0.3 -1,0.5 -1.5,0.5 -1.4,0.1 -2,-0.6 -2,-1.8 z m 3.8,17.2 h -3.7 V 66.8 h 3.7 z"
   id="path355"
   style="fill:#000000;fill-opacity:1" />
		
			<linearGradient
   id="SVGID_28_"
   gradientUnits="userSpaceOnUse"
   x1="227.49001"
   y1="14.4288"
   x2="344.42001"
   y2="14.4288"
   gradientTransform="matrix(1,0,0,-1,0,88)">
			<stop
   offset="0"
   style="stop-color:#FBD572"
   id="stop357" />
			<stop
   offset="0.22"
   style="stop-color:#F3A957"
   id="stop359" />
			<stop
   offset="0.36"
   style="stop-color:#EF9248"
   id="stop361" />
			<stop
   offset="0.54"
   style="stop-color:#CE7329"
   id="stop363" />
			<stop
   offset="1"
   style="stop-color:#92471B"
   id="stop365" />
		</linearGradient>
		<path
   class="st27"
   d="m 268.6,80.7 c -1.9,0.1 -3.7,-0.5 -5.1,-1.8 -1.3,-1.4 -2,-3.3 -1.8,-5.2 -0.1,-1.9 0.5,-3.8 1.7,-5.3 1.2,-1.3 2.9,-2 4.7,-1.9 1.7,-0.1 3.3,0.5 4.5,1.7 1.1,1.2 1.7,2.9 1.6,4.6 v 1.8 h -8.8 c 0,0.9 0.3,1.8 0.9,2.5 0.7,0.6 1.6,0.9 2.5,0.9 0.8,0 1.6,-0.1 2.3,-0.3 0.8,-0.2 1.6,-0.5 2.3,-0.8 v 2.9 c -0.7,0.3 -1.4,0.6 -2.1,0.7 -0.9,0.1 -1.8,0.2 -2.7,0.2 z m -0.5,-11.6 c -0.7,0 -1.4,0.2 -1.9,0.8 -0.5,0.6 -0.8,1.4 -0.8,2.1 h 5.2 c 0,-0.8 -0.2,-1.5 -0.7,-2.1 -0.5,-0.5 -1.1,-0.8 -1.8,-0.8 z"
   id="path368"
   style="fill:#000000;fill-opacity:1" />
		
			<linearGradient
   id="SVGID_29_"
   gradientUnits="userSpaceOnUse"
   x1="227.49001"
   y1="14.556"
   x2="344.42001"
   y2="14.556"
   gradientTransform="matrix(1,0,0,-1,0,88)">
			<stop
   offset="0"
   style="stop-color:#FBD572"
   id="stop370" />
			<stop
   offset="0.22"
   style="stop-color:#F3A957"
   id="stop372" />
			<stop
   offset="0.36"
   style="stop-color:#EF9248"
   id="stop374" />
			<stop
   offset="0.54"
   style="stop-color:#CE7329"
   id="stop376" />
			<stop
   offset="1"
   style="stop-color:#92471B"
   id="stop378" />
		</linearGradient>
		<path
   class="st28"
   d="M 289.7,80.4 H 286 v -8 c 0.1,-0.8 -0.1,-1.5 -0.5,-2.2 -0.4,-0.5 -1,-0.8 -1.7,-0.7 -0.9,-0.1 -1.7,0.3 -2.2,1 -0.6,1.1 -0.8,2.3 -0.7,3.5 v 6.4 h -3.7 V 66.8 h 2.8 l 0.5,1.7 h 0.2 c 0.4,-0.6 1,-1.2 1.7,-1.5 0.8,-0.4 1.6,-0.5 2.5,-0.5 1.3,-0.1 2.6,0.4 3.6,1.3 0.9,1 1.3,2.4 1.2,3.7 z"
   id="path381"
   style="fill:#000000;fill-opacity:1" />
		
			<linearGradient
   id="SVGID_30_"
   gradientUnits="userSpaceOnUse"
   x1="227.49001"
   y1="14.4362"
   x2="344.42001"
   y2="14.4362"
   gradientTransform="matrix(1,0,0,-1,0,88)">
			<stop
   offset="0"
   style="stop-color:#FBD572"
   id="stop383" />
			<stop
   offset="0.22"
   style="stop-color:#F3A957"
   id="stop385" />
			<stop
   offset="0.36"
   style="stop-color:#EF9248"
   id="stop387" />
			<stop
   offset="0.54"
   style="stop-color:#CE7329"
   id="stop389" />
			<stop
   offset="1"
   style="stop-color:#92471B"
   id="stop391" />
		</linearGradient>
		<path
   class="st29"
   d="m 299,80.7 c -4.2,0 -6.4,-2.3 -6.4,-7 -0.1,-1.9 0.5,-3.8 1.7,-5.3 1.3,-1.3 3.1,-2 5,-1.8 1.5,0 2.9,0.3 4.2,0.9 l -1.1,2.9 c -0.6,-0.2 -1.1,-0.4 -1.6,-0.6 -0.5,-0.1 -1,-0.2 -1.5,-0.2 -1.9,0 -2.9,1.4 -2.9,4.1 0,2.7 1,4 2.9,4 0.7,0 1.4,-0.1 2,-0.3 0.6,-0.2 1.3,-0.5 1.8,-0.9 v 3.2 c -0.6,0.4 -1.2,0.6 -1.8,0.8 -0.7,0.1 -1.5,0.2 -2.3,0.2 z"
   id="path394"
   style="fill:#000000;fill-opacity:1" />
		
			<linearGradient
   id="SVGID_31_"
   gradientUnits="userSpaceOnUse"
   x1="227.49001"
   y1="14.429"
   x2="344.42001"
   y2="14.429"
   gradientTransform="matrix(1,0,0,-1,0,88)">
			<stop
   offset="0"
   style="stop-color:#FBD572"
   id="stop396" />
			<stop
   offset="0.22"
   style="stop-color:#F3A957"
   id="stop398" />
			<stop
   offset="0.36"
   style="stop-color:#EF9248"
   id="stop400" />
			<stop
   offset="0.54"
   style="stop-color:#CE7329"
   id="stop402" />
			<stop
   offset="1"
   style="stop-color:#92471B"
   id="stop404" />
		</linearGradient>
		<path
   class="st30"
   d="m 312.5,80.7 c -1.9,0.1 -3.7,-0.5 -5.1,-1.8 -1.3,-1.4 -2,-3.3 -1.9,-5.2 -0.1,-1.9 0.5,-3.8 1.7,-5.3 1.2,-1.3 2.9,-2 4.7,-1.9 1.7,-0.1 3.3,0.5 4.5,1.7 1.1,1.2 1.7,2.9 1.6,4.6 v 1.8 h -8.8 c 0,0.9 0.3,1.8 0.9,2.5 0.7,0.6 1.6,0.9 2.5,0.9 0.8,0 1.6,-0.1 2.3,-0.3 0.8,-0.2 1.6,-0.5 2.3,-0.8 v 2.9 c -0.7,0.3 -1.4,0.6 -2.1,0.7 -0.8,0.1 -1.7,0.2 -2.6,0.2 z M 312,69.1 c -0.7,0 -1.4,0.2 -1.9,0.8 -0.5,0.6 -0.8,1.4 -0.8,2.1 h 5.2 c 0,-0.8 -0.2,-1.5 -0.7,-2.1 -0.4,-0.5 -1.1,-0.8 -1.8,-0.8 z"
   id="path407"
   style="fill:#000000;fill-opacity:1" />
		
			<linearGradient
   id="SVGID_32_"
   gradientUnits="userSpaceOnUse"
   x1="227.49001"
   y1="14.4276"
   x2="344.42001"
   y2="14.4276"
   gradientTransform="matrix(1,0,0,-1,0,88)">
			<stop
   offset="0"
   style="stop-color:#FBD572"
   id="stop409" />
			<stop
   offset="0.22"
   style="stop-color:#F3A957"
   id="stop411" />
			<stop
   offset="0.36"
   style="stop-color:#EF9248"
   id="stop413" />
			<stop
   offset="0.54"
   style="stop-color:#CE7329"
   id="stop415" />
			<stop
   offset="1"
   style="stop-color:#92471B"
   id="stop417" />
		</linearGradient>
		<path
   class="st31"
   d="m 330.5,76.3 c 0.1,1.2 -0.5,2.4 -1.5,3.2 -1.3,0.8 -2.8,1.2 -4.4,1.1 -0.8,0 -1.7,-0.1 -2.5,-0.2 -0.7,-0.1 -1.4,-0.3 -2,-0.6 v -3.1 c 0.7,0.3 1.5,0.6 2.3,0.8 0.7,0.2 1.5,0.3 2.3,0.3 1.3,0 2,-0.4 2,-1.2 0,-0.3 -0.1,-0.5 -0.3,-0.7 -0.3,-0.2 -0.6,-0.5 -0.9,-0.6 -0.4,-0.2 -1,-0.5 -1.8,-0.8 -0.8,-0.3 -1.6,-0.7 -2.3,-1.2 -0.5,-0.3 -0.8,-0.8 -1.1,-1.3 -0.2,-0.6 -0.4,-1.2 -0.3,-1.8 0,-1.1 0.5,-2.2 1.4,-2.8 1.2,-0.7 2.6,-1.1 4,-1 1.7,0 3.3,0.4 4.8,1.1 l -1.1,2.7 c -0.7,-0.3 -1.3,-0.5 -1.9,-0.7 -0.6,-0.2 -1.2,-0.3 -1.8,-0.3 -1.1,0 -1.6,0.3 -1.6,0.9 0,0.4 0.2,0.7 0.5,0.9 0.7,0.4 1.5,0.8 2.3,1.1 0.8,0.3 1.6,0.7 2.3,1.2 0.5,0.3 0.8,0.8 1.1,1.3 0.4,0.5 0.5,1.1 0.5,1.7 z"
   id="path420"
   style="fill:#000000;fill-opacity:1" />
	</g>
</g></g>
</svg>
