<?xml version="1.0" encoding="UTF-8" standalone="no"?>
<!-- Generator: Adobe Illustrator 23.0.1, SVG Export Plug-In . SVG Version: 6.00 Build 0)  -->

<svg
   version="1.1"
   id="Layer_1"
   x="0px"
   y="0px"
   viewBox="0 0 344.4 85.1"
   style="enable-background:new 0 0 344.4 85.1;"
   xml:space="preserve"
   sodipodi:docname="edsblue.svg"
   inkscape:version="1.1.1 (eb90963e84, 2021-10-02)"
   xmlns:inkscape="http://www.inkscape.org/namespaces/inkscape"
   xmlns:sodipodi="http://sodipodi.sourceforge.net/DTD/sodipodi-0.dtd"
   xmlns="http://www.w3.org/2000/svg"
   xmlns:svg="http://www.w3.org/2000/svg"
   xmlns:rdf="http://www.w3.org/1999/02/22-rdf-syntax-ns#"
   xmlns:cc="http://creativecommons.org/ns#"
   xmlns:dc="http://purl.org/dc/elements/1.1/"><metadata
   id="metadata430"><rdf:RDF><cc:Work
       rdf:about=""><dc:format>image/svg+xml</dc:format><dc:type
         rdf:resource="http://purl.org/dc/dcmitype/StillImage" /><dc:title>Asset 1</dc:title></cc:Work></rdf:RDF></metadata><defs
   id="defs428" /><sodipodi:namedview
   pagecolor="#ffffff"
   bordercolor="#666666"
   borderopacity="1"
   objecttolerance="10"
   gridtolerance="10"
   guidetolerance="10"
   inkscape:pageopacity="0"
   inkscape:pageshadow="2"
   inkscape:window-width="1920"
   inkscape:window-height="1023"
   id="namedview426"
   showgrid="false"
   inkscape:zoom="4.2019165"
   inkscape:cx="147.31373"
   inkscape:cy="68.06418"
   inkscape:window-x="0"
   inkscape:window-y="27"
   inkscape:window-maximized="1"
   inkscape:current-layer="Layer_1"
   inkscape:pagecheckerboard="0" />
<style
   type="text/css"
   id="style2">
	.st0{fill:url(#SVGID_1_);}
	.st1{fill:url(#SVGID_2_);}
	.st2{fill:url(#SVGID_3_);}
	.st3{fill:url(#SVGID_4_);}
	.st4{fill:url(#SVGID_5_);}
	.st5{fill:url(#SVGID_6_);}
	.st6{fill:url(#SVGID_7_);}
	.st7{fill:url(#SVGID_8_);}
	.st8{fill:url(#SVGID_9_);}
	.st9{fill:url(#SVGID_10_);}
	.st10{fill:url(#SVGID_11_);}
	.st11{fill:url(#SVGID_12_);}
	.st12{fill:url(#SVGID_13_);}
	.st13{fill:url(#SVGID_14_);}
	.st14{fill:url(#SVGID_15_);}
	.st15{fill:url(#SVGID_16_);}
	.st16{fill:url(#SVGID_17_);}
	.st17{fill:url(#SVGID_18_);}
	.st18{fill:url(#SVGID_19_);}
	.st19{fill:url(#SVGID_20_);}
	.st20{fill:url(#SVGID_21_);}
	.st21{fill:url(#SVGID_22_);}
	.st22{fill:url(#SVGID_23_);}
	.st23{fill:url(#SVGID_24_);}
	.st24{fill:url(#SVGID_25_);}
	.st25{fill:url(#SVGID_26_);}
	.st26{fill:url(#SVGID_27_);}
	.st27{fill:url(#SVGID_28_);}
	.st28{fill:url(#SVGID_29_);}
	.st29{fill:url(#SVGID_30_);}
	.st30{fill:url(#SVGID_31_);}
	.st31{fill:url(#SVGID_32_);}
</style>
<title
   id="title4">Asset 1</title>
<g
   id="g423"
   style="fill:#3f4b8c;fill-opacity:0.8509804;stroke:#3f4b8c;stroke-opacity:0.8509804">
	<g
   id="Layer_1-2"
   style="fill:#3f4b8c;fill-opacity:0.8509804;stroke:#3f4b8c;stroke-opacity:0.8509804">
		
			<linearGradient
   id="SVGID_1_"
   gradientUnits="userSpaceOnUse"
   x1="104.11"
   y1="70.3134"
   x2="197.24"
   y2="70.3134"
   gradientTransform="matrix(1 0 0 -1 0 88)">
			<stop
   offset="0"
   style="stop-color:#FBD572"
   id="stop6" />
			<stop
   offset="0.22"
   style="stop-color:#F3A957"
   id="stop8" />
			<stop
   offset="0.36"
   style="stop-color:#EF9248"
   id="stop10" />
			<stop
   offset="0.54"
   style="stop-color:#CE7329"
   id="stop12" />
			<stop
   offset="1"
   style="stop-color:#92471B"
   id="stop14" />
		</linearGradient>
		<path
   class="st0"
   d="M104.1,27.2c0,0,8.5-6.3,13.6-10c0,0,14.5-10.2,27.1-14.1c0,0,13.6-4.5,27.4-2.7c0,0,16.2,1.5,24.9,12.2    c-2.9-1.3-5.9-2.3-9-3.1c0,0-10.3-2-16.7-1.2c-8.8,0.7-17.3,3-25.2,6.8c0,0-11,5.9-14.6,8.3c0,0-15.1,10.7-16.8,11.9L104.1,27.2z"
   id="path17"
   style="fill:#3f4b8c;fill-opacity:0.8509804;stroke:#3f4b8c;stroke-opacity:0.8509804" />
		
			<linearGradient
   id="SVGID_2_"
   gradientUnits="userSpaceOnUse"
   x1="118.87"
   y1="42.2015"
   x2="215.2442"
   y2="42.2015"
   gradientTransform="matrix(1 0 0 -1 0 88)">
			<stop
   offset="0"
   style="stop-color:#FBD572"
   id="stop19" />
			<stop
   offset="0.22"
   style="stop-color:#F3A957"
   id="stop21" />
			<stop
   offset="0.36"
   style="stop-color:#EF9248"
   id="stop23" />
			<stop
   offset="0.54"
   style="stop-color:#CE7329"
   id="stop25" />
			<stop
   offset="1"
   style="stop-color:#92471B"
   id="stop27" />
		</linearGradient>
		<path
   class="st1"
   d="M193.7,9.1c1.3,1.1,2.4,2.3,3.5,3.5c2,2.3,3.6,5,4.8,7.8c0,0,1.6,3,2.1,9.8c0,0,0.8,5.2-1.9,13.2    c-4.3,10.8-12.6,19.6-23.2,24.5c0,0-21.3,11.7-43.9,3.6c0,0-6.7-2.4-9.4-4.3c0,0-4.2-2.5-5.3-3.3l-1.5-1.1c0,0,4.7,3.5,6.9,5.1    c0,0,5.9,4.5,8.2,5.9c3,1.8,6.1,3.5,9.4,4.9c3.2,1.3,6.5,2.3,9.9,3c2.7,0.5,5.5,0.8,8.2,0.9c4,0.1,8-0.2,11.9-0.9    c0,0,7.1-1.3,11.1-3c5.8-2.1,11.2-5.2,15.9-9.2c5.6-4.5,10-10.3,12.6-17c0,0,6.2-14.5-2.1-27.9c0,0-1.7-3.6-8.7-9.1l-5.4-4    L193.7,9.1z"
   id="path30"
   style="fill:#3f4b8c;fill-opacity:0.8509804;stroke:#3f4b8c;stroke-opacity:0.8509804" />
		
			<linearGradient
   id="SVGID_3_"
   gradientUnits="userSpaceOnUse"
   x1="116.71"
   y1="57.6893"
   x2="183.82"
   y2="57.6893"
   gradientTransform="matrix(1 0 0 -1 0 88)">
			<stop
   offset="0"
   style="stop-color:#FBD572"
   id="stop32" />
			<stop
   offset="0.22"
   style="stop-color:#F3A957"
   id="stop34" />
			<stop
   offset="0.36"
   style="stop-color:#EF9248"
   id="stop36" />
			<stop
   offset="0.54"
   style="stop-color:#CE7329"
   id="stop38" />
			<stop
   offset="1"
   style="stop-color:#92471B"
   id="stop40" />
		</linearGradient>
		<path
   class="st2"
   d="M116.7,37.3l11,8.3c0,0,14.7-11,19.3-13.5c0,0,9.6-5.9,17.9-7.7c0,0,9.6-2.9,18.9,0.2    c-1.7-2.5-3.9-4.6-6.5-6.2c0,0-5.2-3.5-13.8-3.5c-5.4-0.1-10.8,0.9-15.8,3c0,0-9.4,4-14.2,7.3C133.4,25.4,119.9,34.5,116.7,37.3z"
   id="path43"
   style="fill:#3f4b8c;fill-opacity:0.8509804;stroke:#3f4b8c;stroke-opacity:0.8509804" />
		
			<linearGradient
   id="SVGID_4_"
   gradientUnits="userSpaceOnUse"
   x1="132.45"
   y1="44.9109"
   x2="195.7422"
   y2="44.9109"
   gradientTransform="matrix(1 0 0 -1 0 88)">
			<stop
   offset="0"
   style="stop-color:#FBD572"
   id="stop45" />
			<stop
   offset="0.22"
   style="stop-color:#F3A957"
   id="stop47" />
			<stop
   offset="0.36"
   style="stop-color:#EF9248"
   id="stop49" />
			<stop
   offset="0.54"
   style="stop-color:#CE7329"
   id="stop51" />
			<stop
   offset="1"
   style="stop-color:#92471B"
   id="stop53" />
		</linearGradient>
		<path
   class="st3"
   d="M178.6,19.4c1.4,1.3,2.7,2.7,3.7,4.3c0.8,1.3,1.4,2.7,1.8,4.1c0,0,1.3,2.8,0.6,8.3c0,0-0.3,5.2-5.1,11.1    c-3.1,3.6-6.9,6.5-11.2,8.4c-4.8,2.1-10,3.1-15.3,2.8c-6-0.4-11.7-2.2-16.8-5.4l-3.9-2.8c0,0,3.6,3,5,4c0,0,6.3,5,8.9,6.5    c3,2,6.3,3.6,9.8,4.6c4.8,1.4,9.8,1.7,14.7,1c5.9-0.9,11.4-3.4,16-7.2c0,0,4.2-3,7.4-9.9c1.7-4.2,1.9-8.7,0.7-13.1    c0,0-0.5-3.4-5-8c0,0-2.1-1.7-3.6-2.9l-3.9-3L178.6,19.4z"
   id="path56"
   style="fill:#3f4b8c;fill-opacity:0.8509804;stroke:#3f4b8c;stroke-opacity:0.8509804" />
		
			<linearGradient
   id="SVGID_5_"
   gradientUnits="userSpaceOnUse"
   x1="116.71"
   y1="42.215"
   x2="137.47"
   y2="42.215"
   gradientTransform="matrix(1 0 0 -1 0 88)">
			<stop
   offset="0"
   style="stop-color:#FBD572"
   id="stop58" />
			<stop
   offset="0.22"
   style="stop-color:#F3A957"
   id="stop60" />
			<stop
   offset="0.36"
   style="stop-color:#EF9248"
   id="stop62" />
			<stop
   offset="0.54"
   style="stop-color:#CE7329"
   id="stop64" />
			<stop
   offset="1"
   style="stop-color:#92471B"
   id="stop66" />
		</linearGradient>
		<path
   class="st4"
   d="M116.7,37.3l11.2,8.3c0,0,9.2,8.3,9.6,8.6c0,0-8.8-6.1-10.4-7.8L116.7,37.3z"
   id="path69"
   style="fill:#3f4b8c;fill-opacity:0.8509804;stroke:#3f4b8c;stroke-opacity:0.8509804" />
		
			<linearGradient
   id="SVGID_6_"
   gradientUnits="userSpaceOnUse"
   x1="19.27"
   y1="21.8588"
   x2="111.62"
   y2="21.8588"
   gradientTransform="matrix(1 0 0 -1 0 88)">
			<stop
   offset="0"
   style="stop-color:#FBD572"
   id="stop71" />
			<stop
   offset="0.22"
   style="stop-color:#F3A957"
   id="stop73" />
			<stop
   offset="0.36"
   style="stop-color:#EF9248"
   id="stop75" />
			<stop
   offset="0.54"
   style="stop-color:#CE7329"
   id="stop77" />
			<stop
   offset="1"
   style="stop-color:#92471B"
   id="stop79" />
		</linearGradient>
		<path
   class="st5"
   d="M111.6,55c0,0-8.2,6.7-13.2,10.6c0,0-14.1,10.9-26.5,15.3c0,0-13.3,5.2-27.3,3.9c0,0-16.2-0.7-25.4-11    c2.9,1.1,6,2,9.1,2.6c0,0,10.4,1.5,16.8,0.5c8.7-1.1,17.1-3.9,24.9-8c0,0,10.7-6.4,14.2-9l16.2-12.7L111.6,55z"
   id="path82"
   style="fill:#3f4b8c;fill-opacity:0.8509804;stroke:#3f4b8c;stroke-opacity:0.8509804" />
		
			<linearGradient
   id="SVGID_7_"
   gradientUnits="userSpaceOnUse"
   x1="5.212520e-04"
   y1="48.616"
   x2="95.1"
   y2="48.616"
   gradientTransform="matrix(1 0 0 -1 0 88)">
			<stop
   offset="0"
   style="stop-color:#FBD572"
   id="stop84" />
			<stop
   offset="0.22"
   style="stop-color:#F3A957"
   id="stop86" />
			<stop
   offset="0.36"
   style="stop-color:#EF9248"
   id="stop88" />
			<stop
   offset="0.54"
   style="stop-color:#CE7329"
   id="stop90" />
			<stop
   offset="1"
   style="stop-color:#92471B"
   id="stop92" />
		</linearGradient>
		<path
   class="st6"
   d="M22.9,77.2c-1.3-1-2.5-2.2-3.7-3.4c-2.1-2.3-3.8-4.8-5.1-7.7c0,0-1.7-2.9-2.6-9.8c0,0-1-5.2,1.3-13.4    c3.8-11.1,11.7-20.3,22-25.8c0,0,20.8-12.8,43.6-5.7c0,0,6.8,2.1,9.6,3.9c0,0,4.3,2.4,5.4,3.1l1.6,1c0,0-4.8-3.3-7.1-4.8    c0,0-6.1-4.2-8.5-5.6c-3.1-1.7-6.2-3.2-9.5-4.5c-3.3-1.1-6.6-2-10-2.5c-2.7-0.4-5.5-0.5-8.2-0.5c-4,0.1-7.9,0.6-11.8,1.4    c0,0-7,1.6-11,3.6C23.3,9,18,12.4,13.5,16.6C8.1,21.4,4,27.5,1.7,34.3c0,0-5.6,14.9,3.3,28.1c0,0,1.8,3.6,9.1,8.8l5.6,3.8    L22.9,77.2z"
   id="path95"
   style="fill:#3f4b8c;fill-opacity:0.8509804;stroke:#3f4b8c;stroke-opacity:0.8509804" />
		
			<linearGradient
   id="SVGID_8_"
   gradientUnits="userSpaceOnUse"
   x1="32.4"
   y1="34.1229"
   x2="98.81"
   y2="34.1229"
   gradientTransform="matrix(1 0 0 -1 0 88)">
			<stop
   offset="0"
   style="stop-color:#FBD572"
   id="stop97" />
			<stop
   offset="0.22"
   style="stop-color:#F3A957"
   id="stop99" />
			<stop
   offset="0.36"
   style="stop-color:#EF9248"
   id="stop101" />
			<stop
   offset="0.54"
   style="stop-color:#CE7329"
   id="stop103" />
			<stop
   offset="1"
   style="stop-color:#92471B"
   id="stop105" />
		</linearGradient>
		<path
   class="st7"
   d="M98.8,45.5l-11.3-7.8c0,0-14.2,11.6-18.6,14.4c0,0-9.3,6.3-17.6,8.5c0,0-9.5,3.4-18.9,0.7    c1.8,2.4,4.1,4.4,6.7,5.8c0,0,5.3,3.2,14,2.8c5.4-0.2,10.7-1.4,15.6-3.8c0,0,9.2-4.5,13.9-7.9C82.7,58.3,95.8,48.5,98.8,45.5z"
   id="path108"
   style="fill:#3f4b8c;fill-opacity:0.8509804;stroke:#3f4b8c;stroke-opacity:0.8509804" />
		
			<linearGradient
   id="SVGID_9_"
   gradientUnits="userSpaceOnUse"
   x1="17.9263"
   y1="46.6965"
   x2="82.25"
   y2="46.6965"
   gradientTransform="matrix(1 0 0 -1 0 88)">
			<stop
   offset="0"
   style="stop-color:#FBD572"
   id="stop110" />
			<stop
   offset="0.22"
   style="stop-color:#F3A957"
   id="stop112" />
			<stop
   offset="0.36"
   style="stop-color:#EF9248"
   id="stop114" />
			<stop
   offset="0.54"
   style="stop-color:#CE7329"
   id="stop116" />
			<stop
   offset="1"
   style="stop-color:#92471B"
   id="stop118" />
		</linearGradient>
		<path
   class="st8"
   d="M36.4,65.3c-1.5-1.2-2.8-2.6-4-4.1c-0.8-1.3-1.5-2.6-2-4c0,0-1.4-2.8-1-8.3c0,0,0.1-5.2,4.6-11.4    c2.9-3.8,6.7-6.9,11-9c4.8-2.4,10-3.6,15.4-3.5c6.1,0.1,12,1.7,17.3,4.6l4.6,3c0,0-4.3-3.1-5.8-4.1c0,0-6.6-4.7-9.3-6.1    c-3.1-1.9-6.6-3.3-10.1-4.2c-4.9-1.2-10-1.3-15-0.3c-5.9,1.2-11.4,4-15.9,8c0,0-4.1,3.2-7.1,10.2c-1.5,4.2-1.6,8.8-0.2,13.1    c0,0,0.7,3.4,5.4,7.8c0,0,2.2,1.6,3.8,2.7l4.1,2.8L36.4,65.3z"
   id="path121"
   style="fill:#3f4b8c;fill-opacity:0.8509804;stroke:#3f4b8c;stroke-opacity:0.8509804" />
		
			<linearGradient
   id="SVGID_10_"
   gradientUnits="userSpaceOnUse"
   x1="91.35"
   y1="61.675"
   x2="114.96"
   y2="61.675"
   gradientTransform="matrix(1 0 0 -1 0 88)">
			<stop
   offset="0"
   style="stop-color:#FBD572"
   id="stop123" />
			<stop
   offset="0.22"
   style="stop-color:#F3A957"
   id="stop125" />
			<stop
   offset="0.36"
   style="stop-color:#EF9248"
   id="stop127" />
			<stop
   offset="0.54"
   style="stop-color:#CE7329"
   id="stop129" />
			<stop
   offset="1"
   style="stop-color:#92471B"
   id="stop131" />
		</linearGradient>
		<path
   class="st9"
   d="M115,35.4l-7.5-5.2l-4.6-3.2l-5.6-4.9l-5.9-5c0,0,3.5,2,6.2,3.9c0,0,5.5,4,6.5,4.9    C104,26.1,112.3,33,115,35.4z"
   id="path134"
   style="fill:#3f4b8c;fill-opacity:0.8509804;stroke:#3f4b8c;stroke-opacity:0.8509804" />
		
			<linearGradient
   id="SVGID_11_"
   gradientUnits="userSpaceOnUse"
   x1="77.69"
   y1="50.415"
   x2="98.81"
   y2="50.415"
   gradientTransform="matrix(1 0 0 -1 0 88)">
			<stop
   offset="0"
   style="stop-color:#FBD572"
   id="stop136" />
			<stop
   offset="0.22"
   style="stop-color:#F3A957"
   id="stop138" />
			<stop
   offset="0.36"
   style="stop-color:#EF9248"
   id="stop140" />
			<stop
   offset="0.54"
   style="stop-color:#CE7329"
   id="stop142" />
			<stop
   offset="1"
   style="stop-color:#92471B"
   id="stop144" />
		</linearGradient>
		<path
   class="st10"
   d="M98.8,45.5l-11.3-7.8c0,0-9.4-7.9-9.8-8.1c0,0,8.9,5.7,10.5,7.2L98.8,45.5z"
   id="path147"
   style="fill:#3f4b8c;fill-opacity:0.8509804;stroke:#3f4b8c;stroke-opacity:0.8509804" />
		
			<linearGradient
   id="SVGID_12_"
   gradientUnits="userSpaceOnUse"
   x1="100.52"
   y1="31.26"
   x2="123.86"
   y2="31.26"
   gradientTransform="matrix(1 0 0 -1 0 88)">
			<stop
   offset="0"
   style="stop-color:#FBD572"
   id="stop149" />
			<stop
   offset="0.22"
   style="stop-color:#F3A957"
   id="stop151" />
			<stop
   offset="0.36"
   style="stop-color:#EF9248"
   id="stop153" />
			<stop
   offset="0.54"
   style="stop-color:#CE7329"
   id="stop155" />
			<stop
   offset="1"
   style="stop-color:#92471B"
   id="stop157" />
		</linearGradient>
		<path
   class="st11"
   d="M100.5,47.3l8.1,5.4L113,56l5.3,5l5.6,5.1c0,0-3.4-2.2-5.9-4.2c0,0-5.2-4.2-6.2-5.1    C111.8,56.9,103,49.8,100.5,47.3z"
   id="path160"
   style="fill:#3f4b8c;fill-opacity:0.8509804;stroke:#3f4b8c;stroke-opacity:0.8509804" />
		
			<linearGradient
   id="SVGID_13_"
   gradientUnits="userSpaceOnUse"
   x1="227.49"
   y1="76.59"
   x2="344.42"
   y2="76.59"
   gradientTransform="matrix(1 0 0 -1 0 88)">
			<stop
   offset="0"
   style="stop-color:#FBD572"
   id="stop162" />
			<stop
   offset="0.22"
   style="stop-color:#F3A957"
   id="stop164" />
			<stop
   offset="0.36"
   style="stop-color:#EF9248"
   id="stop166" />
			<stop
   offset="0.54"
   style="stop-color:#CE7329"
   id="stop168" />
			<stop
   offset="1"
   style="stop-color:#92471B"
   id="stop170" />
		</linearGradient>
		<path
   class="st12"
   d="M238.8,20.3h-10.2V2.5h10.2v3.1h-6.5v3.9h6v3.1h-6v4.6h6.5V20.3z"
   id="path173"
   style="fill:#3f4b8c;fill-opacity:0.8509804;stroke:#3f4b8c;stroke-opacity:0.8509804" />
		
			<linearGradient
   id="SVGID_14_"
   gradientUnits="userSpaceOnUse"
   x1="227.49"
   y1="74.4966"
   x2="344.42"
   y2="74.4966"
   gradientTransform="matrix(1 0 0 -1 0 88)">
			<stop
   offset="0"
   style="stop-color:#FBD572"
   id="stop175" />
			<stop
   offset="0.22"
   style="stop-color:#F3A957"
   id="stop177" />
			<stop
   offset="0.36"
   style="stop-color:#EF9248"
   id="stop179" />
			<stop
   offset="0.54"
   style="stop-color:#CE7329"
   id="stop181" />
			<stop
   offset="1"
   style="stop-color:#92471B"
   id="stop183" />
		</linearGradient>
		<path
   class="st13"
   d="M247.8,20.6c-4.2,0-6.4-2.3-6.4-7c-0.1-1.9,0.5-3.8,1.7-5.3c1.3-1.3,3.1-2,5-1.8c1.5,0,2.9,0.3,4.2,0.9    l-1.1,2.9c-0.5-0.2-1.1-0.4-1.6-0.6c-0.5-0.2-1-0.2-1.5-0.2c-1.9,0-2.9,1.4-2.9,4.1s1,4.1,2.9,4c0.7,0,1.4-0.1,2-0.3    c0.6-0.2,1.3-0.5,1.8-0.9v3.2c-0.6,0.4-1.2,0.6-1.8,0.8C249.4,20.5,248.6,20.6,247.8,20.6z"
   id="path186"
   style="fill:#3f4b8c;fill-opacity:0.8509804;stroke:#3f4b8c;stroke-opacity:0.8509804" />
		
			<linearGradient
   id="SVGID_15_"
   gradientUnits="userSpaceOnUse"
   x1="227.49"
   y1="74.4956"
   x2="344.42"
   y2="74.4956"
   gradientTransform="matrix(1 0 0 -1 0 88)">
			<stop
   offset="0"
   style="stop-color:#FBD572"
   id="stop188" />
			<stop
   offset="0.22"
   style="stop-color:#F3A957"
   id="stop190" />
			<stop
   offset="0.36"
   style="stop-color:#EF9248"
   id="stop192" />
			<stop
   offset="0.54"
   style="stop-color:#CE7329"
   id="stop194" />
			<stop
   offset="1"
   style="stop-color:#92471B"
   id="stop196" />
		</linearGradient>
		<path
   class="st14"
   d="M267.4,13.5c0.1,1.9-0.5,3.8-1.8,5.2c-1.3,1.3-3.1,2-4.9,1.9c-1.2,0-2.4-0.3-3.5-0.9c-1-0.6-1.8-1.4-2.3-2.5    c-0.6-1.2-0.8-2.5-0.8-3.8c-0.1-1.9,0.5-3.8,1.8-5.2c1.3-1.3,3.1-2,4.9-1.9c1.2,0,2.4,0.3,3.5,0.9c1,0.6,1.8,1.4,2.3,2.4    C267.2,10.9,267.5,12.2,267.4,13.5z M258,13.5c-0.1,1.1,0.2,2.1,0.7,3.1c0.9,1.2,2.7,1.4,3.9,0.4c0.2-0.1,0.3-0.3,0.4-0.4    c0.5-0.9,0.7-2,0.6-3.1c0.1-1.1-0.2-2.1-0.7-3.1c-1-1.2-2.7-1.4-3.9-0.4c-0.1,0.1-0.3,0.2-0.4,0.4C258.2,11.4,257.9,12.4,258,13.5    L258,13.5z"
   id="path199"
   style="fill:#3f4b8c;fill-opacity:0.8509804;stroke:#3f4b8c;stroke-opacity:0.8509804" />
		
			<linearGradient
   id="SVGID_16_"
   gradientUnits="userSpaceOnUse"
   x1="227.49"
   y1="74.626"
   x2="344.42"
   y2="74.626"
   gradientTransform="matrix(1 0 0 -1 0 88)">
			<stop
   offset="0"
   style="stop-color:#FBD572"
   id="stop201" />
			<stop
   offset="0.22"
   style="stop-color:#F3A957"
   id="stop203" />
			<stop
   offset="0.36"
   style="stop-color:#EF9248"
   id="stop205" />
			<stop
   offset="0.54"
   style="stop-color:#CE7329"
   id="stop207" />
			<stop
   offset="1"
   style="stop-color:#92471B"
   id="stop209" />
		</linearGradient>
		<path
   class="st15"
   d="M283,20.3h-3.7v-8c0-0.8-0.1-1.5-0.5-2.2c-0.4-0.5-1-0.8-1.7-0.7c-0.9-0.1-1.7,0.3-2.2,1    c-0.5,1.1-0.8,2.3-0.7,3.5v6.4h-3.7V6.7h2.8l0.5,1.8h0.2c0.4-0.7,1-1.2,1.7-1.5c0.8-0.3,1.6-0.5,2.5-0.5c1.3-0.1,2.6,0.4,3.6,1.3    c0.9,1,1.3,2.4,1.2,3.7V20.3z"
   id="path212"
   style="fill:#3f4b8c;fill-opacity:0.8509804;stroke:#3f4b8c;stroke-opacity:0.8509804" />
		
			<linearGradient
   id="SVGID_17_"
   gradientUnits="userSpaceOnUse"
   x1="227.49"
   y1="74.4958"
   x2="344.42"
   y2="74.4958"
   gradientTransform="matrix(1 0 0 -1 0 88)">
			<stop
   offset="0"
   style="stop-color:#FBD572"
   id="stop214" />
			<stop
   offset="0.22"
   style="stop-color:#F3A957"
   id="stop216" />
			<stop
   offset="0.36"
   style="stop-color:#EF9248"
   id="stop218" />
			<stop
   offset="0.54"
   style="stop-color:#CE7329"
   id="stop220" />
			<stop
   offset="1"
   style="stop-color:#92471B"
   id="stop222" />
		</linearGradient>
		<path
   class="st16"
   d="M299.2,13.5c0.1,1.9-0.5,3.8-1.8,5.2c-1.3,1.3-3.1,2-4.9,1.9c-1.2,0-2.4-0.3-3.5-0.9c-1-0.6-1.8-1.4-2.3-2.5    c-0.6-1.2-0.8-2.5-0.8-3.8c-0.1-1.9,0.5-3.8,1.7-5.2c1.3-1.3,3.1-2,4.9-1.9c1.2,0,2.4,0.3,3.5,0.9c1,0.6,1.8,1.4,2.3,2.4    C299,10.9,299.2,12.2,299.2,13.5z M289.8,13.5c-0.1,1.1,0.2,2.1,0.7,3.1c0.5,0.7,1.3,1.1,2.2,1c0.8,0.1,1.7-0.3,2.1-1    c0.5-0.9,0.7-2,0.6-3.1c0.1-1.1-0.2-2.1-0.6-3.1c-0.5-0.7-1.3-1.1-2.2-1c-0.8-0.1-1.7,0.3-2.1,1C290,11.4,289.7,12.4,289.8,13.5z"
   id="path225"
   style="fill:#3f4b8c;fill-opacity:0.8509804;stroke:#3f4b8c;stroke-opacity:0.8509804" />
		
			<linearGradient
   id="SVGID_18_"
   gradientUnits="userSpaceOnUse"
   x1="227.49"
   y1="74.5761"
   x2="344.42"
   y2="74.5761"
   gradientTransform="matrix(1 0 0 -1 0 88)">
			<stop
   offset="0"
   style="stop-color:#FBD572"
   id="stop227" />
			<stop
   offset="0.22"
   style="stop-color:#F3A957"
   id="stop229" />
			<stop
   offset="0.36"
   style="stop-color:#EF9248"
   id="stop231" />
			<stop
   offset="0.54"
   style="stop-color:#CE7329"
   id="stop233" />
			<stop
   offset="1"
   style="stop-color:#92471B"
   id="stop235" />
		</linearGradient>
		<path
   class="st17"
   d="M314.5,20.3h-3.7v-8c0-0.8-0.1-1.5-0.5-2.2c-0.4-0.5-0.9-0.8-1.5-0.7c-0.8-0.1-1.6,0.3-2.1,1.1    c-0.5,1.1-0.7,2.3-0.6,3.4v6.4h-3.7V6.7h2.8l0.5,1.8h0.2c0.4-0.6,0.9-1.1,1.6-1.4c0.7-0.4,1.6-0.6,2.4-0.5c2,0,3.4,0.7,4.1,2h0.3    c0.4-0.6,0.9-1.1,1.6-1.5c0.7-0.4,1.6-0.5,2.4-0.5c1.3-0.1,2.5,0.3,3.5,1.2c0.9,1.1,1.3,2.4,1.2,3.8v8.9h-3.7v-8    c0-0.8-0.1-1.5-0.5-2.2c-0.4-0.5-0.9-0.8-1.5-0.7c-0.8,0-1.5,0.3-2,1c-0.5,0.9-0.8,2-0.7,3.1L314.5,20.3z"
   id="path238"
   style="fill:#3f4b8c;fill-opacity:0.8509804;stroke:#3f4b8c;stroke-opacity:0.8509804" />
		
			<linearGradient
   id="SVGID_19_"
   gradientUnits="userSpaceOnUse"
   x1="227.49"
   y1="77.165"
   x2="344.42"
   y2="77.165"
   gradientTransform="matrix(1 0 0 -1 0 88)">
			<stop
   offset="0"
   style="stop-color:#FBD572"
   id="stop240" />
			<stop
   offset="0.22"
   style="stop-color:#F3A957"
   id="stop242" />
			<stop
   offset="0.36"
   style="stop-color:#EF9248"
   id="stop244" />
			<stop
   offset="0.54"
   style="stop-color:#CE7329"
   id="stop246" />
			<stop
   offset="1"
   style="stop-color:#92471B"
   id="stop248" />
		</linearGradient>
		<path
   class="st18"
   d="M326.6,3.2c0-1.2,0.7-1.8,2-1.8s2,0.6,2,1.8c0,0.5-0.1,1-0.5,1.3c-0.4,0.3-0.9,0.5-1.5,0.5    C327.2,5,326.6,4.4,326.6,3.2z M330.4,20.3h-3.7V6.7h3.7V20.3z"
   id="path251"
   style="fill:#3f4b8c;fill-opacity:0.8509804;stroke:#3f4b8c;stroke-opacity:0.8509804" />
		
			<linearGradient
   id="SVGID_20_"
   gradientUnits="userSpaceOnUse"
   x1="227.49"
   y1="74.4959"
   x2="344.42"
   y2="74.4959"
   gradientTransform="matrix(1 0 0 -1 0 88)">
			<stop
   offset="0"
   style="stop-color:#FBD572"
   id="stop253" />
			<stop
   offset="0.22"
   style="stop-color:#F3A957"
   id="stop255" />
			<stop
   offset="0.36"
   style="stop-color:#EF9248"
   id="stop257" />
			<stop
   offset="0.54"
   style="stop-color:#CE7329"
   id="stop259" />
			<stop
   offset="1"
   style="stop-color:#92471B"
   id="stop261" />
		</linearGradient>
		<path
   class="st19"
   d="M339.9,20.6c-4.2,0-6.4-2.3-6.4-7c-0.1-1.9,0.5-3.8,1.7-5.3c1.3-1.3,3.1-2,5-1.8c1.5,0,2.9,0.3,4.2,0.9    l-1.1,2.9c-0.6-0.2-1.1-0.4-1.6-0.6c-0.5-0.1-1-0.2-1.5-0.2c-1.9,0-2.9,1.4-2.9,4.1s1,4.1,2.9,4c0.7,0,1.4-0.1,2-0.3    c0.7-0.2,1.3-0.5,1.8-0.9v3.2c-0.6,0.4-1.2,0.6-1.8,0.8C341.4,20.5,340.6,20.6,339.9,20.6z"
   id="path264"
   style="fill:#3f4b8c;fill-opacity:0.8509804;stroke:#3f4b8c;stroke-opacity:0.8509804" />
		
			<linearGradient
   id="SVGID_21_"
   gradientUnits="userSpaceOnUse"
   x1="227.49"
   y1="46.5638"
   x2="344.42"
   y2="46.5638"
   gradientTransform="matrix(1 0 0 -1 0 88)">
			<stop
   offset="0"
   style="stop-color:#FBD572"
   id="stop266" />
			<stop
   offset="0.22"
   style="stop-color:#F3A957"
   id="stop268" />
			<stop
   offset="0.36"
   style="stop-color:#EF9248"
   id="stop270" />
			<stop
   offset="0.54"
   style="stop-color:#CE7329"
   id="stop272" />
			<stop
   offset="1"
   style="stop-color:#92471B"
   id="stop274" />
		</linearGradient>
		<path
   class="st20"
   d="M243.3,41.3c0,2.9-0.8,5.2-2.5,6.8s-4.1,2.3-7.2,2.3h-5V32.5h5.6c2.5-0.2,4.9,0.7,6.8,2.3    C242.6,36.5,243.5,38.9,243.3,41.3z M239.4,41.4c0-3.8-1.7-5.8-5.1-5.8h-2v11.6h1.6C237.6,47.2,239.4,45.3,239.4,41.4z"
   id="path277"
   style="fill:#3f4b8c;fill-opacity:0.8509804;stroke:#3f4b8c;stroke-opacity:0.8509804" />
		
			<linearGradient
   id="SVGID_22_"
   gradientUnits="userSpaceOnUse"
   x1="227.49"
   y1="44.4699"
   x2="344.42"
   y2="44.4699"
   gradientTransform="matrix(1 0 0 -1 0 88)">
			<stop
   offset="0"
   style="stop-color:#FBD572"
   id="stop279" />
			<stop
   offset="0.22"
   style="stop-color:#F3A957"
   id="stop281" />
			<stop
   offset="0.36"
   style="stop-color:#EF9248"
   id="stop283" />
			<stop
   offset="0.54"
   style="stop-color:#CE7329"
   id="stop285" />
			<stop
   offset="1"
   style="stop-color:#92471B"
   id="stop287" />
		</linearGradient>
		<path
   class="st21"
   d="M255.4,50.4l-0.7-1.9h-0.1c-0.5,0.7-1.2,1.3-1.9,1.6c-0.8,0.3-1.7,0.5-2.6,0.5c-1.1,0.1-2.2-0.4-3-1.1    c-0.8-0.9-1.2-2-1.1-3.2c-0.1-1.3,0.5-2.5,1.5-3.2c1.4-0.8,3-1.2,4.6-1.2l2.4-0.1v-0.6c0.1-1-0.6-1.9-1.6-2.1c-0.2,0-0.3,0-0.5,0    c-1.3,0.1-2.6,0.4-3.8,1l-1.2-2.5c1.6-0.8,3.4-1.3,5.2-1.2c1.5-0.1,3,0.3,4.2,1.2c1,0.9,1.6,2.3,1.5,3.6v9.1H255.4z M254.3,44.1    l-1.4,0c-0.8,0-1.7,0.2-2.4,0.6c-0.5,0.4-0.8,1-0.8,1.6c0,1,0.6,1.6,1.8,1.6c0.8,0,1.5-0.2,2.1-0.8c0.5-0.5,0.8-1.3,0.8-2    L254.3,44.1z"
   id="path290"
   style="fill:#3f4b8c;fill-opacity:0.8509804;stroke:#3f4b8c;stroke-opacity:0.8509804" />
		
			<linearGradient
   id="SVGID_23_"
   gradientUnits="userSpaceOnUse"
   x1="227.49"
   y1="45.7765"
   x2="344.42"
   y2="45.7765"
   gradientTransform="matrix(1 0 0 -1 0 88)">
			<stop
   offset="0"
   style="stop-color:#FBD572"
   id="stop292" />
			<stop
   offset="0.22"
   style="stop-color:#F3A957"
   id="stop294" />
			<stop
   offset="0.36"
   style="stop-color:#EF9248"
   id="stop296" />
			<stop
   offset="0.54"
   style="stop-color:#CE7329"
   id="stop298" />
			<stop
   offset="1"
   style="stop-color:#92471B"
   id="stop300" />
		</linearGradient>
		<path
   class="st22"
   d="M267.5,47.7c0.8,0,1.6-0.2,2.3-0.4V50c-1.1,0.4-2.2,0.7-3.4,0.6c-1.2,0.1-2.4-0.3-3.2-1.1    c-0.7-1-1.1-2.2-1-3.4v-6.6h-1.8v-1.6l2-1.2l1.1-2.9h2.4v2.9h3.8v2.8h-3.8v6.6c0,0.4,0.1,0.9,0.4,1.2    C266.7,47.5,267.1,47.7,267.5,47.7z"
   id="path303"
   style="fill:#3f4b8c;fill-opacity:0.8509804;stroke:#3f4b8c;stroke-opacity:0.8509804" />
		
			<linearGradient
   id="SVGID_24_"
   gradientUnits="userSpaceOnUse"
   x1="227.49"
   y1="44.479"
   x2="344.42"
   y2="44.479"
   gradientTransform="matrix(1 0 0 -1 0 88)">
			<stop
   offset="0"
   style="stop-color:#FBD572"
   id="stop305" />
			<stop
   offset="0.22"
   style="stop-color:#F3A957"
   id="stop307" />
			<stop
   offset="0.36"
   style="stop-color:#EF9248"
   id="stop309" />
			<stop
   offset="0.54"
   style="stop-color:#CE7329"
   id="stop311" />
			<stop
   offset="1"
   style="stop-color:#92471B"
   id="stop313" />
		</linearGradient>
		<path
   class="st23"
   d="M281.2,50.4l-0.7-1.9h-0.1c-0.5,0.7-1.2,1.3-1.9,1.6c-0.8,0.3-1.7,0.5-2.6,0.5c-1.1,0.1-2.2-0.3-3.1-1.1    c-0.8-0.9-1.2-2-1.1-3.2c-0.1-1.3,0.5-2.5,1.5-3.2c1.4-0.8,3-1.2,4.6-1.2l2.4-0.1v-0.6c0.1-1-0.6-1.9-1.6-2.1c-0.2,0-0.4,0-0.5,0    c-1.3,0.1-2.6,0.4-3.8,1l-1.2-2.5c1.6-0.8,3.4-1.3,5.2-1.2c1.5-0.1,3,0.3,4.2,1.2c1,0.9,1.6,2.3,1.5,3.6v9.1L281.2,50.4z     M280.1,44.1l-1.4,0c-0.8,0-1.7,0.2-2.4,0.6c-0.5,0.4-0.8,1-0.8,1.6c0,1,0.6,1.6,1.8,1.6c0.8,0,1.5-0.2,2.1-0.8    c0.5-0.5,0.8-1.3,0.8-2L280.1,44.1z"
   id="path316"
   style="fill:#3f4b8c;fill-opacity:0.8509804;stroke:#3f4b8c;stroke-opacity:0.8509804" />
		
			<linearGradient
   id="SVGID_25_"
   gradientUnits="userSpaceOnUse"
   x1="227.49"
   y1="16.5291"
   x2="344.42"
   y2="16.5291"
   gradientTransform="matrix(1 0 0 -1 0 88)">
			<stop
   offset="0"
   style="stop-color:#FBD572"
   id="stop318" />
			<stop
   offset="0.22"
   style="stop-color:#F3A957"
   id="stop320" />
			<stop
   offset="0.36"
   style="stop-color:#EF9248"
   id="stop322" />
			<stop
   offset="0.54"
   style="stop-color:#CE7329"
   id="stop324" />
			<stop
   offset="1"
   style="stop-color:#92471B"
   id="stop326" />
		</linearGradient>
		<path
   class="st24"
   d="M239.1,75.4c0.1,1.5-0.6,2.9-1.7,3.8c-1.4,1-3.1,1.5-4.8,1.4c-1.7,0-3.4-0.3-5-1.1v-3.5c1,0.5,2,0.8,3,1.1    c0.7,0.2,1.5,0.3,2.3,0.3c0.7,0,1.3-0.1,1.9-0.5c0.4-0.3,0.7-0.9,0.7-1.4c0-0.3-0.1-0.7-0.3-0.9c-0.2-0.3-0.5-0.6-0.9-0.8    c-0.7-0.5-1.5-0.9-2.3-1.2c-0.9-0.4-1.7-0.9-2.4-1.5c-0.5-0.5-1-1-1.3-1.7c-0.3-0.7-0.5-1.4-0.5-2.2c-0.1-1.4,0.5-2.8,1.6-3.7    c1.3-1,2.8-1.4,4.4-1.3c0.9,0,1.8,0.1,2.6,0.3c0.9,0.2,1.8,0.6,2.6,0.9l-1.2,2.9c-0.8-0.3-1.5-0.6-2.4-0.8    c-0.6-0.1-1.2-0.2-1.8-0.2c-0.6,0-1.2,0.1-1.6,0.5c-0.6,0.6-0.7,1.5-0.3,2.2c0.2,0.3,0.4,0.5,0.7,0.7c0.8,0.5,1.6,0.9,2.4,1.3    c1.3,0.5,2.5,1.4,3.4,2.4C238.8,73.3,239.1,74.4,239.1,75.4z"
   id="path329"
   style="fill:#3f4b8c;fill-opacity:0.8509804;stroke:#3f4b8c;stroke-opacity:0.8509804" />
		
			<linearGradient
   id="SVGID_26_"
   gradientUnits="userSpaceOnUse"
   x1="227.49"
   y1="14.4379"
   x2="344.42"
   y2="14.4379"
   gradientTransform="matrix(1 0 0 -1 0 88)">
			<stop
   offset="0"
   style="stop-color:#FBD572"
   id="stop331" />
			<stop
   offset="0.22"
   style="stop-color:#F3A957"
   id="stop333" />
			<stop
   offset="0.36"
   style="stop-color:#EF9248"
   id="stop335" />
			<stop
   offset="0.54"
   style="stop-color:#CE7329"
   id="stop337" />
			<stop
   offset="1"
   style="stop-color:#92471B"
   id="stop339" />
		</linearGradient>
		<path
   class="st25"
   d="M247.5,80.7c-4.2,0-6.3-2.3-6.4-7c-0.1-1.9,0.5-3.8,1.7-5.3c1.3-1.3,3.1-2,5-1.8c1.5,0,2.9,0.3,4.2,0.9    l-1.1,2.9c-0.6-0.2-1.1-0.4-1.6-0.6c-0.5-0.1-1-0.2-1.5-0.2c-1.9,0-2.9,1.4-2.9,4.1s1,4,2.9,4c0.7,0,1.4-0.1,2-0.3    c0.6-0.2,1.3-0.5,1.8-0.9v3.2c-0.6,0.4-1.2,0.6-1.8,0.8C249.1,80.6,248.3,80.7,247.5,80.7z"
   id="path342"
   style="fill:#3f4b8c;fill-opacity:0.8509804;stroke:#3f4b8c;stroke-opacity:0.8509804" />
		
			<linearGradient
   id="SVGID_27_"
   gradientUnits="userSpaceOnUse"
   x1="227.49"
   y1="17.095"
   x2="344.42"
   y2="17.095"
   gradientTransform="matrix(1 0 0 -1 0 88)">
			<stop
   offset="0"
   style="stop-color:#FBD572"
   id="stop344" />
			<stop
   offset="0.22"
   style="stop-color:#F3A957"
   id="stop346" />
			<stop
   offset="0.36"
   style="stop-color:#EF9248"
   id="stop348" />
			<stop
   offset="0.54"
   style="stop-color:#CE7329"
   id="stop350" />
			<stop
   offset="1"
   style="stop-color:#92471B"
   id="stop352" />
		</linearGradient>
		<path
   class="st26"
   d="M254.7,63.2c0-1.2,0.7-1.8,2-1.8s2,0.6,2,1.8c0,0.5-0.2,1-0.5,1.3c-0.4,0.3-1,0.5-1.5,0.5    C255.3,65.1,254.7,64.4,254.7,63.2z M258.5,80.4h-3.7V66.8h3.7V80.4z"
   id="path355"
   style="fill:#3f4b8c;fill-opacity:0.8509804;stroke:#3f4b8c;stroke-opacity:0.8509804" />
		
			<linearGradient
   id="SVGID_28_"
   gradientUnits="userSpaceOnUse"
   x1="227.49"
   y1="14.4288"
   x2="344.42"
   y2="14.4288"
   gradientTransform="matrix(1 0 0 -1 0 88)">
			<stop
   offset="0"
   style="stop-color:#FBD572"
   id="stop357" />
			<stop
   offset="0.22"
   style="stop-color:#F3A957"
   id="stop359" />
			<stop
   offset="0.36"
   style="stop-color:#EF9248"
   id="stop361" />
			<stop
   offset="0.54"
   style="stop-color:#CE7329"
   id="stop363" />
			<stop
   offset="1"
   style="stop-color:#92471B"
   id="stop365" />
		</linearGradient>
		<path
   class="st27"
   d="M268.6,80.7c-1.9,0.1-3.7-0.5-5.1-1.8c-1.3-1.4-2-3.3-1.8-5.2c-0.1-1.9,0.5-3.8,1.7-5.3    c1.2-1.3,2.9-2,4.7-1.9c1.7-0.1,3.3,0.5,4.5,1.7c1.1,1.2,1.7,2.9,1.6,4.6v1.8h-8.8c0,0.9,0.3,1.8,0.9,2.5c0.7,0.6,1.6,0.9,2.5,0.9    c0.8,0,1.6-0.1,2.3-0.3c0.8-0.2,1.6-0.5,2.3-0.8v2.9c-0.7,0.3-1.4,0.6-2.1,0.7C270.4,80.6,269.5,80.7,268.6,80.7z M268.1,69.1    c-0.7,0-1.4,0.2-1.9,0.8c-0.5,0.6-0.8,1.4-0.8,2.1h5.2c0-0.8-0.2-1.5-0.7-2.1C269.4,69.4,268.8,69.1,268.1,69.1z"
   id="path368"
   style="fill:#3f4b8c;fill-opacity:0.8509804;stroke:#3f4b8c;stroke-opacity:0.8509804" />
		
			<linearGradient
   id="SVGID_29_"
   gradientUnits="userSpaceOnUse"
   x1="227.49"
   y1="14.556"
   x2="344.42"
   y2="14.556"
   gradientTransform="matrix(1 0 0 -1 0 88)">
			<stop
   offset="0"
   style="stop-color:#FBD572"
   id="stop370" />
			<stop
   offset="0.22"
   style="stop-color:#F3A957"
   id="stop372" />
			<stop
   offset="0.36"
   style="stop-color:#EF9248"
   id="stop374" />
			<stop
   offset="0.54"
   style="stop-color:#CE7329"
   id="stop376" />
			<stop
   offset="1"
   style="stop-color:#92471B"
   id="stop378" />
		</linearGradient>
		<path
   class="st28"
   d="M289.7,80.4H286v-8c0.1-0.8-0.1-1.5-0.5-2.2c-0.4-0.5-1-0.8-1.7-0.7c-0.9-0.1-1.7,0.3-2.2,1    c-0.6,1.1-0.8,2.3-0.7,3.5v6.4h-3.7V66.8h2.8l0.5,1.7h0.2c0.4-0.6,1-1.2,1.7-1.5c0.8-0.4,1.6-0.5,2.5-0.5c1.3-0.1,2.6,0.4,3.6,1.3    c0.9,1,1.3,2.4,1.2,3.7L289.7,80.4z"
   id="path381"
   style="fill:#3f4b8c;fill-opacity:0.8509804;stroke:#3f4b8c;stroke-opacity:0.8509804" />
		
			<linearGradient
   id="SVGID_30_"
   gradientUnits="userSpaceOnUse"
   x1="227.49"
   y1="14.4362"
   x2="344.42"
   y2="14.4362"
   gradientTransform="matrix(1 0 0 -1 0 88)">
			<stop
   offset="0"
   style="stop-color:#FBD572"
   id="stop383" />
			<stop
   offset="0.22"
   style="stop-color:#F3A957"
   id="stop385" />
			<stop
   offset="0.36"
   style="stop-color:#EF9248"
   id="stop387" />
			<stop
   offset="0.54"
   style="stop-color:#CE7329"
   id="stop389" />
			<stop
   offset="1"
   style="stop-color:#92471B"
   id="stop391" />
		</linearGradient>
		<path
   class="st29"
   d="M299,80.7c-4.2,0-6.4-2.3-6.4-7c-0.1-1.9,0.5-3.8,1.7-5.3c1.3-1.3,3.1-2,5-1.8c1.5,0,2.9,0.3,4.2,0.9    l-1.1,2.9c-0.6-0.2-1.1-0.4-1.6-0.6c-0.5-0.1-1-0.2-1.5-0.2c-1.9,0-2.9,1.4-2.9,4.1s1,4,2.9,4c0.7,0,1.4-0.1,2-0.3    c0.6-0.2,1.3-0.5,1.8-0.9v3.2c-0.6,0.4-1.2,0.6-1.8,0.8C300.6,80.6,299.8,80.7,299,80.7z"
   id="path394"
   style="fill:#3f4b8c;fill-opacity:0.8509804;stroke:#3f4b8c;stroke-opacity:0.8509804" />
		
			<linearGradient
   id="SVGID_31_"
   gradientUnits="userSpaceOnUse"
   x1="227.49"
   y1="14.429"
   x2="344.42"
   y2="14.429"
   gradientTransform="matrix(1 0 0 -1 0 88)">
			<stop
   offset="0"
   style="stop-color:#FBD572"
   id="stop396" />
			<stop
   offset="0.22"
   style="stop-color:#F3A957"
   id="stop398" />
			<stop
   offset="0.36"
   style="stop-color:#EF9248"
   id="stop400" />
			<stop
   offset="0.54"
   style="stop-color:#CE7329"
   id="stop402" />
			<stop
   offset="1"
   style="stop-color:#92471B"
   id="stop404" />
		</linearGradient>
		<path
   class="st30"
   d="M312.5,80.7c-1.9,0.1-3.7-0.5-5.1-1.8c-1.3-1.4-2-3.3-1.9-5.2c-0.1-1.9,0.5-3.8,1.7-5.3    c1.2-1.3,2.9-2,4.7-1.9c1.7-0.1,3.3,0.5,4.5,1.7c1.1,1.2,1.7,2.9,1.6,4.6v1.8h-8.8c0,0.9,0.3,1.8,0.9,2.5c0.7,0.6,1.6,0.9,2.5,0.9    c0.8,0,1.6-0.1,2.3-0.3c0.8-0.2,1.6-0.5,2.3-0.8v2.9c-0.7,0.3-1.4,0.6-2.1,0.7C314.3,80.6,313.4,80.7,312.5,80.7z M312,69.1    c-0.7,0-1.4,0.2-1.9,0.8c-0.5,0.6-0.8,1.4-0.8,2.1h5.2c0-0.8-0.2-1.5-0.7-2.1C313.4,69.4,312.7,69.1,312,69.1z"
   id="path407"
   style="fill:#3f4b8c;fill-opacity:0.8509804;stroke:#3f4b8c;stroke-opacity:0.8509804" />
		
			<linearGradient
   id="SVGID_32_"
   gradientUnits="userSpaceOnUse"
   x1="227.49"
   y1="14.4276"
   x2="344.42"
   y2="14.4276"
   gradientTransform="matrix(1 0 0 -1 0 88)">
			<stop
   offset="0"
   style="stop-color:#FBD572"
   id="stop409" />
			<stop
   offset="0.22"
   style="stop-color:#F3A957"
   id="stop411" />
			<stop
   offset="0.36"
   style="stop-color:#EF9248"
   id="stop413" />
			<stop
   offset="0.54"
   style="stop-color:#CE7329"
   id="stop415" />
			<stop
   offset="1"
   style="stop-color:#92471B"
   id="stop417" />
		</linearGradient>
		<path
   class="st31"
   d="M330.5,76.3c0.1,1.2-0.5,2.4-1.5,3.2c-1.3,0.8-2.8,1.2-4.4,1.1c-0.8,0-1.7-0.1-2.5-0.2    c-0.7-0.1-1.4-0.3-2-0.6v-3.1c0.7,0.3,1.5,0.6,2.3,0.8c0.7,0.2,1.5,0.3,2.3,0.3c1.3,0,2-0.4,2-1.2c0-0.3-0.1-0.5-0.3-0.7    c-0.3-0.2-0.6-0.5-0.9-0.6c-0.4-0.2-1-0.5-1.8-0.8c-0.8-0.3-1.6-0.7-2.3-1.2c-0.5-0.3-0.8-0.8-1.1-1.3c-0.2-0.6-0.4-1.2-0.3-1.8    c0-1.1,0.5-2.2,1.4-2.8c1.2-0.7,2.6-1.1,4-1c1.7,0,3.3,0.4,4.8,1.1l-1.1,2.7c-0.7-0.3-1.3-0.5-1.9-0.7c-0.6-0.2-1.2-0.3-1.8-0.3    c-1.1,0-1.6,0.3-1.6,0.9c0,0.4,0.2,0.7,0.5,0.9c0.7,0.4,1.5,0.8,2.3,1.1c0.8,0.3,1.6,0.7,2.3,1.2c0.5,0.3,0.8,0.8,1.1,1.3    C330.4,75.1,330.5,75.7,330.5,76.3z"
   id="path420"
   style="fill:#3f4b8c;fill-opacity:0.8509804;stroke:#3f4b8c;stroke-opacity:0.8509804" />
	</g>
</g>
</svg>
